<mxfile host="Electron" modified="2024-01-07T10:43:52.419Z" agent="Mozilla/5.0 (Macintosh; Intel Mac OS X 10_15_7) AppleWebKit/537.36 (KHTML, like Gecko) draw.io/21.8.2 Chrome/114.0.5735.289 Electron/25.8.1 Safari/537.36" etag="DiR8LXk8bNmcpf-S_1qC" version="21.8.2" type="device">
  <diagram name="第 1 页" id="8yllPwIb_XhfSrkYlAhL">
    <mxGraphModel dx="1640" dy="1305" grid="0" gridSize="10" guides="0" tooltips="1" connect="1" arrows="1" fold="1" page="0" pageScale="1" pageWidth="827" pageHeight="1169" math="0" shadow="0">
      <root>
        <mxCell id="0" />
        <mxCell id="1" parent="0" />
        <mxCell id="MEFUFmm3cKLQaKz43sfX-542" value="" style="rounded=0;whiteSpace=wrap;html=1;fillColor=#e1d5e7;strokeColor=#9673a6;" vertex="1" parent="1">
          <mxGeometry x="34" y="3229" width="800" height="280" as="geometry" />
        </mxCell>
        <mxCell id="MEFUFmm3cKLQaKz43sfX-430" value="" style="rounded=0;whiteSpace=wrap;html=1;fillColor=#b0e3e6;strokeColor=#0e8088;" vertex="1" parent="1">
          <mxGeometry x="34" y="2289" width="800" height="280" as="geometry" />
        </mxCell>
        <mxCell id="MEFUFmm3cKLQaKz43sfX-423" value="" style="rounded=0;whiteSpace=wrap;html=1;fillColor=#e1d5e7;strokeColor=#9673a6;" vertex="1" parent="1">
          <mxGeometry x="37" y="1902" width="800" height="280" as="geometry" />
        </mxCell>
        <mxCell id="MEFUFmm3cKLQaKz43sfX-421" value="" style="rounded=0;whiteSpace=wrap;html=1;fillColor=#b0e3e6;strokeColor=#0e8088;" vertex="1" parent="1">
          <mxGeometry x="37" y="1622" width="800" height="280" as="geometry" />
        </mxCell>
        <mxCell id="MEFUFmm3cKLQaKz43sfX-420" value="" style="rounded=0;whiteSpace=wrap;html=1;fillColor=#e1d5e7;strokeColor=#9673a6;" vertex="1" parent="1">
          <mxGeometry x="40" y="1265" width="800" height="280" as="geometry" />
        </mxCell>
        <mxCell id="MEFUFmm3cKLQaKz43sfX-419" value="" style="rounded=0;whiteSpace=wrap;html=1;fillColor=#b0e3e6;strokeColor=#0e8088;" vertex="1" parent="1">
          <mxGeometry x="40" y="985" width="800" height="280" as="geometry" />
        </mxCell>
        <mxCell id="MEFUFmm3cKLQaKz43sfX-418" value="" style="rounded=0;whiteSpace=wrap;html=1;fillColor=#b0e3e6;strokeColor=#0e8088;" vertex="1" parent="1">
          <mxGeometry x="40" y="320" width="800" height="280" as="geometry" />
        </mxCell>
        <mxCell id="MEFUFmm3cKLQaKz43sfX-417" value="" style="rounded=0;whiteSpace=wrap;html=1;fillColor=#e1d5e7;strokeColor=#9673a6;" vertex="1" parent="1">
          <mxGeometry x="40" y="642" width="800" height="280" as="geometry" />
        </mxCell>
        <mxCell id="MEFUFmm3cKLQaKz43sfX-5" value="2" style="rounded=0;orthogonalLoop=1;jettySize=auto;html=1;exitX=0;exitY=0.5;exitDx=0;exitDy=0;shape=link;" edge="1" parent="1" source="MEFUFmm3cKLQaKz43sfX-7" target="MEFUFmm3cKLQaKz43sfX-9">
          <mxGeometry relative="1" as="geometry" />
        </mxCell>
        <mxCell id="MEFUFmm3cKLQaKz43sfX-6" value="5" style="rounded=0;orthogonalLoop=1;jettySize=auto;html=1;exitX=1;exitY=0.5;exitDx=0;exitDy=0;shape=link;" edge="1" parent="1" source="MEFUFmm3cKLQaKz43sfX-7" target="MEFUFmm3cKLQaKz43sfX-12">
          <mxGeometry relative="1" as="geometry" />
        </mxCell>
        <mxCell id="MEFUFmm3cKLQaKz43sfX-7" value="1" style="ellipse;whiteSpace=wrap;html=1;aspect=fixed;" vertex="1" parent="1">
          <mxGeometry x="160" y="50" width="40" height="40" as="geometry" />
        </mxCell>
        <mxCell id="MEFUFmm3cKLQaKz43sfX-8" value="6" style="rounded=0;orthogonalLoop=1;jettySize=auto;html=1;exitX=0.5;exitY=1;exitDx=0;exitDy=0;entryX=0;entryY=0.5;entryDx=0;entryDy=0;shape=link;" edge="1" parent="1" source="MEFUFmm3cKLQaKz43sfX-9" target="MEFUFmm3cKLQaKz43sfX-10">
          <mxGeometry relative="1" as="geometry" />
        </mxCell>
        <mxCell id="MEFUFmm3cKLQaKz43sfX-9" value="0" style="ellipse;whiteSpace=wrap;html=1;aspect=fixed;fillColor=#dae8fc;strokeColor=#6c8ebf;" vertex="1" parent="1">
          <mxGeometry x="80" y="130" width="40" height="40" as="geometry" />
        </mxCell>
        <mxCell id="MEFUFmm3cKLQaKz43sfX-10" value="2" style="ellipse;whiteSpace=wrap;html=1;aspect=fixed;" vertex="1" parent="1">
          <mxGeometry x="160" y="210" width="40" height="40" as="geometry" />
        </mxCell>
        <mxCell id="MEFUFmm3cKLQaKz43sfX-11" value="8" style="rounded=0;orthogonalLoop=1;jettySize=auto;html=1;exitX=0.5;exitY=1;exitDx=0;exitDy=0;entryX=1;entryY=0.5;entryDx=0;entryDy=0;shape=link;" edge="1" parent="1" source="MEFUFmm3cKLQaKz43sfX-12" target="MEFUFmm3cKLQaKz43sfX-10">
          <mxGeometry relative="1" as="geometry" />
        </mxCell>
        <mxCell id="MEFUFmm3cKLQaKz43sfX-12" value="3" style="ellipse;whiteSpace=wrap;html=1;aspect=fixed;" vertex="1" parent="1">
          <mxGeometry x="240" y="130" width="40" height="40" as="geometry" />
        </mxCell>
        <mxCell id="MEFUFmm3cKLQaKz43sfX-13" value="15" style="rounded=0;orthogonalLoop=1;jettySize=auto;html=1;exitX=0;exitY=0.5;exitDx=0;exitDy=0;shape=link;" edge="1" parent="1" source="MEFUFmm3cKLQaKz43sfX-15" target="MEFUFmm3cKLQaKz43sfX-12">
          <mxGeometry relative="1" as="geometry" />
        </mxCell>
        <mxCell id="MEFUFmm3cKLQaKz43sfX-14" value="6" style="rounded=0;orthogonalLoop=1;jettySize=auto;html=1;exitX=0.5;exitY=1;exitDx=0;exitDy=0;shape=link;" edge="1" parent="1" source="MEFUFmm3cKLQaKz43sfX-15" target="MEFUFmm3cKLQaKz43sfX-17">
          <mxGeometry relative="1" as="geometry" />
        </mxCell>
        <mxCell id="MEFUFmm3cKLQaKz43sfX-15" value="5" style="ellipse;whiteSpace=wrap;html=1;aspect=fixed;" vertex="1" parent="1">
          <mxGeometry x="320" y="50" width="40" height="40" as="geometry" />
        </mxCell>
        <mxCell id="MEFUFmm3cKLQaKz43sfX-16" value="10" style="rounded=0;orthogonalLoop=1;jettySize=auto;html=1;exitX=0;exitY=0.5;exitDx=0;exitDy=0;entryX=0.5;entryY=1;entryDx=0;entryDy=0;shape=link;" edge="1" parent="1" source="MEFUFmm3cKLQaKz43sfX-17" target="MEFUFmm3cKLQaKz43sfX-12">
          <mxGeometry relative="1" as="geometry" />
        </mxCell>
        <mxCell id="MEFUFmm3cKLQaKz43sfX-17" value="4" style="ellipse;whiteSpace=wrap;html=1;aspect=fixed;" vertex="1" parent="1">
          <mxGeometry x="320" y="210" width="40" height="40" as="geometry" />
        </mxCell>
        <mxCell id="MEFUFmm3cKLQaKz43sfX-18" value="Distance" style="rounded=0;whiteSpace=wrap;html=1;" vertex="1" parent="1">
          <mxGeometry x="400" y="160" width="80" height="40" as="geometry" />
        </mxCell>
        <mxCell id="MEFUFmm3cKLQaKz43sfX-19" value="0" style="rounded=0;whiteSpace=wrap;html=1;" vertex="1" parent="1">
          <mxGeometry x="480" y="120" width="40" height="40" as="geometry" />
        </mxCell>
        <mxCell id="MEFUFmm3cKLQaKz43sfX-20" value="1" style="rounded=0;whiteSpace=wrap;html=1;" vertex="1" parent="1">
          <mxGeometry x="520" y="120" width="40" height="40" as="geometry" />
        </mxCell>
        <mxCell id="MEFUFmm3cKLQaKz43sfX-21" value="2" style="rounded=0;whiteSpace=wrap;html=1;" vertex="1" parent="1">
          <mxGeometry x="560" y="120" width="40" height="40" as="geometry" />
        </mxCell>
        <mxCell id="MEFUFmm3cKLQaKz43sfX-22" value="3" style="rounded=0;whiteSpace=wrap;html=1;" vertex="1" parent="1">
          <mxGeometry x="600" y="120" width="40" height="40" as="geometry" />
        </mxCell>
        <mxCell id="MEFUFmm3cKLQaKz43sfX-23" value="4" style="rounded=0;whiteSpace=wrap;html=1;" vertex="1" parent="1">
          <mxGeometry x="640" y="120" width="40" height="40" as="geometry" />
        </mxCell>
        <mxCell id="MEFUFmm3cKLQaKz43sfX-24" value="5" style="rounded=0;whiteSpace=wrap;html=1;" vertex="1" parent="1">
          <mxGeometry x="680" y="120" width="40" height="40" as="geometry" />
        </mxCell>
        <mxCell id="MEFUFmm3cKLQaKz43sfX-25" value="0" style="rounded=0;whiteSpace=wrap;html=1;" vertex="1" parent="1">
          <mxGeometry x="480" y="160" width="40" height="40" as="geometry" />
        </mxCell>
        <mxCell id="MEFUFmm3cKLQaKz43sfX-26" value="inf" style="rounded=0;whiteSpace=wrap;html=1;" vertex="1" parent="1">
          <mxGeometry x="520" y="160" width="40" height="40" as="geometry" />
        </mxCell>
        <mxCell id="MEFUFmm3cKLQaKz43sfX-27" value="inf" style="rounded=0;whiteSpace=wrap;html=1;" vertex="1" parent="1">
          <mxGeometry x="560" y="160" width="40" height="40" as="geometry" />
        </mxCell>
        <mxCell id="MEFUFmm3cKLQaKz43sfX-28" value="inf" style="rounded=0;whiteSpace=wrap;html=1;" vertex="1" parent="1">
          <mxGeometry x="600" y="160" width="40" height="40" as="geometry" />
        </mxCell>
        <mxCell id="MEFUFmm3cKLQaKz43sfX-29" value="inf" style="rounded=0;whiteSpace=wrap;html=1;" vertex="1" parent="1">
          <mxGeometry x="640" y="160" width="40" height="40" as="geometry" />
        </mxCell>
        <mxCell id="MEFUFmm3cKLQaKz43sfX-30" value="inf" style="rounded=0;whiteSpace=wrap;html=1;" vertex="1" parent="1">
          <mxGeometry x="680" y="160" width="40" height="40" as="geometry" />
        </mxCell>
        <mxCell id="MEFUFmm3cKLQaKz43sfX-31" value="Visited" style="rounded=0;whiteSpace=wrap;html=1;" vertex="1" parent="1">
          <mxGeometry x="400" y="200" width="80" height="40" as="geometry" />
        </mxCell>
        <mxCell id="MEFUFmm3cKLQaKz43sfX-32" value="F" style="rounded=0;whiteSpace=wrap;html=1;fillColor=#f8cecc;strokeColor=#b85450;" vertex="1" parent="1">
          <mxGeometry x="480" y="200" width="40" height="40" as="geometry" />
        </mxCell>
        <mxCell id="MEFUFmm3cKLQaKz43sfX-33" value="F" style="rounded=0;whiteSpace=wrap;html=1;fillColor=#f8cecc;strokeColor=#b85450;" vertex="1" parent="1">
          <mxGeometry x="520" y="200" width="40" height="40" as="geometry" />
        </mxCell>
        <mxCell id="MEFUFmm3cKLQaKz43sfX-34" value="F" style="rounded=0;whiteSpace=wrap;html=1;fillColor=#f8cecc;strokeColor=#b85450;" vertex="1" parent="1">
          <mxGeometry x="560" y="200" width="40" height="40" as="geometry" />
        </mxCell>
        <mxCell id="MEFUFmm3cKLQaKz43sfX-35" value="F" style="rounded=0;whiteSpace=wrap;html=1;fillColor=#f8cecc;strokeColor=#b85450;" vertex="1" parent="1">
          <mxGeometry x="600" y="200" width="40" height="40" as="geometry" />
        </mxCell>
        <mxCell id="MEFUFmm3cKLQaKz43sfX-36" value="F" style="rounded=0;whiteSpace=wrap;html=1;fillColor=#f8cecc;strokeColor=#b85450;" vertex="1" parent="1">
          <mxGeometry x="640" y="200" width="40" height="40" as="geometry" />
        </mxCell>
        <mxCell id="MEFUFmm3cKLQaKz43sfX-37" value="F" style="rounded=0;whiteSpace=wrap;html=1;fillColor=#f8cecc;strokeColor=#b85450;" vertex="1" parent="1">
          <mxGeometry x="680" y="200" width="40" height="40" as="geometry" />
        </mxCell>
        <mxCell id="MEFUFmm3cKLQaKz43sfX-38" value="Distance" style="rounded=0;whiteSpace=wrap;html=1;" vertex="1" parent="1">
          <mxGeometry x="400" y="480" width="80" height="40" as="geometry" />
        </mxCell>
        <mxCell id="MEFUFmm3cKLQaKz43sfX-39" value="0" style="rounded=0;whiteSpace=wrap;html=1;fillColor=#dae8fc;strokeColor=#6c8ebf;" vertex="1" parent="1">
          <mxGeometry x="480" y="440" width="40" height="40" as="geometry" />
        </mxCell>
        <mxCell id="MEFUFmm3cKLQaKz43sfX-40" value="1" style="rounded=0;whiteSpace=wrap;html=1;" vertex="1" parent="1">
          <mxGeometry x="520" y="440" width="40" height="40" as="geometry" />
        </mxCell>
        <mxCell id="MEFUFmm3cKLQaKz43sfX-41" value="2" style="rounded=0;whiteSpace=wrap;html=1;" vertex="1" parent="1">
          <mxGeometry x="560" y="440" width="40" height="40" as="geometry" />
        </mxCell>
        <mxCell id="MEFUFmm3cKLQaKz43sfX-42" value="3" style="rounded=0;whiteSpace=wrap;html=1;" vertex="1" parent="1">
          <mxGeometry x="600" y="440" width="40" height="40" as="geometry" />
        </mxCell>
        <mxCell id="MEFUFmm3cKLQaKz43sfX-43" value="4" style="rounded=0;whiteSpace=wrap;html=1;" vertex="1" parent="1">
          <mxGeometry x="640" y="440" width="40" height="40" as="geometry" />
        </mxCell>
        <mxCell id="MEFUFmm3cKLQaKz43sfX-44" value="5" style="rounded=0;whiteSpace=wrap;html=1;" vertex="1" parent="1">
          <mxGeometry x="680" y="440" width="40" height="40" as="geometry" />
        </mxCell>
        <mxCell id="MEFUFmm3cKLQaKz43sfX-45" value="0" style="rounded=0;whiteSpace=wrap;html=1;" vertex="1" parent="1">
          <mxGeometry x="480" y="480" width="40" height="40" as="geometry" />
        </mxCell>
        <mxCell id="MEFUFmm3cKLQaKz43sfX-46" value="2" style="rounded=0;whiteSpace=wrap;html=1;" vertex="1" parent="1">
          <mxGeometry x="520" y="480" width="40" height="40" as="geometry" />
        </mxCell>
        <mxCell id="MEFUFmm3cKLQaKz43sfX-47" value="6" style="rounded=0;whiteSpace=wrap;html=1;" vertex="1" parent="1">
          <mxGeometry x="560" y="480" width="40" height="40" as="geometry" />
        </mxCell>
        <mxCell id="MEFUFmm3cKLQaKz43sfX-48" value="inf" style="rounded=0;whiteSpace=wrap;html=1;" vertex="1" parent="1">
          <mxGeometry x="600" y="480" width="40" height="40" as="geometry" />
        </mxCell>
        <mxCell id="MEFUFmm3cKLQaKz43sfX-49" value="inf" style="rounded=0;whiteSpace=wrap;html=1;" vertex="1" parent="1">
          <mxGeometry x="640" y="480" width="40" height="40" as="geometry" />
        </mxCell>
        <mxCell id="MEFUFmm3cKLQaKz43sfX-50" value="inf" style="rounded=0;whiteSpace=wrap;html=1;" vertex="1" parent="1">
          <mxGeometry x="680" y="480" width="40" height="40" as="geometry" />
        </mxCell>
        <mxCell id="MEFUFmm3cKLQaKz43sfX-51" value="Visited" style="rounded=0;whiteSpace=wrap;html=1;" vertex="1" parent="1">
          <mxGeometry x="400" y="520" width="80" height="40" as="geometry" />
        </mxCell>
        <mxCell id="MEFUFmm3cKLQaKz43sfX-52" value="T" style="rounded=0;whiteSpace=wrap;html=1;fillColor=#d5e8d4;strokeColor=#82b366;" vertex="1" parent="1">
          <mxGeometry x="480" y="520" width="40" height="40" as="geometry" />
        </mxCell>
        <mxCell id="MEFUFmm3cKLQaKz43sfX-53" value="F" style="rounded=0;whiteSpace=wrap;html=1;fillColor=#f8cecc;strokeColor=#b85450;" vertex="1" parent="1">
          <mxGeometry x="520" y="520" width="40" height="40" as="geometry" />
        </mxCell>
        <mxCell id="MEFUFmm3cKLQaKz43sfX-54" value="F" style="rounded=0;whiteSpace=wrap;html=1;fillColor=#f8cecc;strokeColor=#b85450;" vertex="1" parent="1">
          <mxGeometry x="560" y="520" width="40" height="40" as="geometry" />
        </mxCell>
        <mxCell id="MEFUFmm3cKLQaKz43sfX-55" value="F" style="rounded=0;whiteSpace=wrap;html=1;fillColor=#f8cecc;strokeColor=#b85450;" vertex="1" parent="1">
          <mxGeometry x="600" y="520" width="40" height="40" as="geometry" />
        </mxCell>
        <mxCell id="MEFUFmm3cKLQaKz43sfX-56" value="F" style="rounded=0;whiteSpace=wrap;html=1;fillColor=#f8cecc;strokeColor=#b85450;" vertex="1" parent="1">
          <mxGeometry x="640" y="520" width="40" height="40" as="geometry" />
        </mxCell>
        <mxCell id="MEFUFmm3cKLQaKz43sfX-57" value="F" style="rounded=0;whiteSpace=wrap;html=1;fillColor=#f8cecc;strokeColor=#b85450;" vertex="1" parent="1">
          <mxGeometry x="680" y="520" width="40" height="40" as="geometry" />
        </mxCell>
        <mxCell id="MEFUFmm3cKLQaKz43sfX-58" value="2" style="rounded=0;orthogonalLoop=1;jettySize=auto;html=1;exitX=0;exitY=0.5;exitDx=0;exitDy=0;shape=link;fillColor=#d5e8d4;strokeColor=#82b366;" edge="1" parent="1" source="MEFUFmm3cKLQaKz43sfX-60" target="MEFUFmm3cKLQaKz43sfX-62">
          <mxGeometry relative="1" as="geometry">
            <mxPoint as="offset" />
          </mxGeometry>
        </mxCell>
        <mxCell id="MEFUFmm3cKLQaKz43sfX-59" value="5" style="rounded=0;orthogonalLoop=1;jettySize=auto;html=1;exitX=1;exitY=0.5;exitDx=0;exitDy=0;shape=link;" edge="1" parent="1" source="MEFUFmm3cKLQaKz43sfX-60" target="MEFUFmm3cKLQaKz43sfX-65">
          <mxGeometry relative="1" as="geometry" />
        </mxCell>
        <mxCell id="MEFUFmm3cKLQaKz43sfX-60" value="1" style="ellipse;whiteSpace=wrap;html=1;aspect=fixed;" vertex="1" parent="1">
          <mxGeometry x="160" y="360" width="40" height="40" as="geometry" />
        </mxCell>
        <mxCell id="MEFUFmm3cKLQaKz43sfX-61" value="6" style="rounded=0;orthogonalLoop=1;jettySize=auto;html=1;exitX=0.5;exitY=1;exitDx=0;exitDy=0;entryX=0;entryY=0.5;entryDx=0;entryDy=0;shape=link;fillColor=#d5e8d4;strokeColor=#82b366;" edge="1" parent="1" source="MEFUFmm3cKLQaKz43sfX-62" target="MEFUFmm3cKLQaKz43sfX-63">
          <mxGeometry relative="1" as="geometry" />
        </mxCell>
        <mxCell id="MEFUFmm3cKLQaKz43sfX-62" value="0" style="ellipse;whiteSpace=wrap;html=1;aspect=fixed;fillColor=#dae8fc;strokeColor=#6c8ebf;" vertex="1" parent="1">
          <mxGeometry x="80" y="440" width="40" height="40" as="geometry" />
        </mxCell>
        <mxCell id="MEFUFmm3cKLQaKz43sfX-63" value="2" style="ellipse;whiteSpace=wrap;html=1;aspect=fixed;" vertex="1" parent="1">
          <mxGeometry x="160" y="520" width="40" height="40" as="geometry" />
        </mxCell>
        <mxCell id="MEFUFmm3cKLQaKz43sfX-64" value="8" style="rounded=0;orthogonalLoop=1;jettySize=auto;html=1;exitX=0.5;exitY=1;exitDx=0;exitDy=0;entryX=1;entryY=0.5;entryDx=0;entryDy=0;shape=link;" edge="1" parent="1" source="MEFUFmm3cKLQaKz43sfX-65" target="MEFUFmm3cKLQaKz43sfX-63">
          <mxGeometry relative="1" as="geometry" />
        </mxCell>
        <mxCell id="MEFUFmm3cKLQaKz43sfX-65" value="3" style="ellipse;whiteSpace=wrap;html=1;aspect=fixed;" vertex="1" parent="1">
          <mxGeometry x="240" y="440" width="40" height="40" as="geometry" />
        </mxCell>
        <mxCell id="MEFUFmm3cKLQaKz43sfX-66" value="15" style="rounded=0;orthogonalLoop=1;jettySize=auto;html=1;exitX=0;exitY=0.5;exitDx=0;exitDy=0;shape=link;" edge="1" parent="1" source="MEFUFmm3cKLQaKz43sfX-68" target="MEFUFmm3cKLQaKz43sfX-65">
          <mxGeometry relative="1" as="geometry" />
        </mxCell>
        <mxCell id="MEFUFmm3cKLQaKz43sfX-67" value="6" style="rounded=0;orthogonalLoop=1;jettySize=auto;html=1;exitX=0.5;exitY=1;exitDx=0;exitDy=0;shape=link;" edge="1" parent="1" source="MEFUFmm3cKLQaKz43sfX-68" target="MEFUFmm3cKLQaKz43sfX-70">
          <mxGeometry relative="1" as="geometry" />
        </mxCell>
        <mxCell id="MEFUFmm3cKLQaKz43sfX-68" value="5" style="ellipse;whiteSpace=wrap;html=1;aspect=fixed;" vertex="1" parent="1">
          <mxGeometry x="320" y="360" width="40" height="40" as="geometry" />
        </mxCell>
        <mxCell id="MEFUFmm3cKLQaKz43sfX-69" value="10" style="rounded=0;orthogonalLoop=1;jettySize=auto;html=1;exitX=0;exitY=0.5;exitDx=0;exitDy=0;entryX=0.5;entryY=1;entryDx=0;entryDy=0;shape=link;" edge="1" parent="1" source="MEFUFmm3cKLQaKz43sfX-70" target="MEFUFmm3cKLQaKz43sfX-65">
          <mxGeometry relative="1" as="geometry" />
        </mxCell>
        <mxCell id="MEFUFmm3cKLQaKz43sfX-70" value="4" style="ellipse;whiteSpace=wrap;html=1;aspect=fixed;" vertex="1" parent="1">
          <mxGeometry x="320" y="520" width="40" height="40" as="geometry" />
        </mxCell>
        <mxCell id="MEFUFmm3cKLQaKz43sfX-203" value="current node" style="rounded=0;whiteSpace=wrap;html=1;" vertex="1" parent="1">
          <mxGeometry x="400" y="360" width="120" height="40" as="geometry" />
        </mxCell>
        <mxCell id="MEFUFmm3cKLQaKz43sfX-204" value="0" style="ellipse;whiteSpace=wrap;html=1;aspect=fixed;fillColor=#dae8fc;strokeColor=#6c8ebf;" vertex="1" parent="1">
          <mxGeometry x="560" y="360" width="40" height="40" as="geometry" />
        </mxCell>
        <mxCell id="MEFUFmm3cKLQaKz43sfX-205" value="current node" style="rounded=0;whiteSpace=wrap;html=1;" vertex="1" parent="1">
          <mxGeometry x="400" y="40" width="120" height="40" as="geometry" />
        </mxCell>
        <mxCell id="MEFUFmm3cKLQaKz43sfX-206" value="0" style="ellipse;whiteSpace=wrap;html=1;aspect=fixed;fillColor=#dae8fc;strokeColor=#6c8ebf;" vertex="1" parent="1">
          <mxGeometry x="560" y="40" width="40" height="40" as="geometry" />
        </mxCell>
        <mxCell id="MEFUFmm3cKLQaKz43sfX-207" value="Distance" style="rounded=0;whiteSpace=wrap;html=1;" vertex="1" parent="1">
          <mxGeometry x="400" y="802" width="80" height="40" as="geometry" />
        </mxCell>
        <mxCell id="MEFUFmm3cKLQaKz43sfX-208" value="0" style="rounded=0;whiteSpace=wrap;html=1;" vertex="1" parent="1">
          <mxGeometry x="480" y="762" width="40" height="40" as="geometry" />
        </mxCell>
        <mxCell id="MEFUFmm3cKLQaKz43sfX-209" value="1" style="rounded=0;whiteSpace=wrap;html=1;fillColor=#dae8fc;strokeColor=#6c8ebf;" vertex="1" parent="1">
          <mxGeometry x="520" y="762" width="40" height="40" as="geometry" />
        </mxCell>
        <mxCell id="MEFUFmm3cKLQaKz43sfX-210" value="2" style="rounded=0;whiteSpace=wrap;html=1;" vertex="1" parent="1">
          <mxGeometry x="560" y="762" width="40" height="40" as="geometry" />
        </mxCell>
        <mxCell id="MEFUFmm3cKLQaKz43sfX-211" value="3" style="rounded=0;whiteSpace=wrap;html=1;" vertex="1" parent="1">
          <mxGeometry x="600" y="762" width="40" height="40" as="geometry" />
        </mxCell>
        <mxCell id="MEFUFmm3cKLQaKz43sfX-212" value="4" style="rounded=0;whiteSpace=wrap;html=1;" vertex="1" parent="1">
          <mxGeometry x="640" y="762" width="40" height="40" as="geometry" />
        </mxCell>
        <mxCell id="MEFUFmm3cKLQaKz43sfX-213" value="5" style="rounded=0;whiteSpace=wrap;html=1;" vertex="1" parent="1">
          <mxGeometry x="680" y="762" width="40" height="40" as="geometry" />
        </mxCell>
        <mxCell id="MEFUFmm3cKLQaKz43sfX-214" value="0" style="rounded=0;whiteSpace=wrap;html=1;" vertex="1" parent="1">
          <mxGeometry x="480" y="802" width="40" height="40" as="geometry" />
        </mxCell>
        <mxCell id="MEFUFmm3cKLQaKz43sfX-215" value="2" style="rounded=0;whiteSpace=wrap;html=1;" vertex="1" parent="1">
          <mxGeometry x="520" y="802" width="40" height="40" as="geometry" />
        </mxCell>
        <mxCell id="MEFUFmm3cKLQaKz43sfX-216" value="6" style="rounded=0;whiteSpace=wrap;html=1;" vertex="1" parent="1">
          <mxGeometry x="560" y="802" width="40" height="40" as="geometry" />
        </mxCell>
        <mxCell id="MEFUFmm3cKLQaKz43sfX-217" value="inf" style="rounded=0;whiteSpace=wrap;html=1;" vertex="1" parent="1">
          <mxGeometry x="600" y="802" width="40" height="40" as="geometry" />
        </mxCell>
        <mxCell id="MEFUFmm3cKLQaKz43sfX-218" value="inf" style="rounded=0;whiteSpace=wrap;html=1;" vertex="1" parent="1">
          <mxGeometry x="640" y="802" width="40" height="40" as="geometry" />
        </mxCell>
        <mxCell id="MEFUFmm3cKLQaKz43sfX-219" value="inf" style="rounded=0;whiteSpace=wrap;html=1;" vertex="1" parent="1">
          <mxGeometry x="680" y="802" width="40" height="40" as="geometry" />
        </mxCell>
        <mxCell id="MEFUFmm3cKLQaKz43sfX-220" value="Visited" style="rounded=0;whiteSpace=wrap;html=1;" vertex="1" parent="1">
          <mxGeometry x="400" y="842" width="80" height="40" as="geometry" />
        </mxCell>
        <mxCell id="MEFUFmm3cKLQaKz43sfX-221" value="T" style="rounded=0;whiteSpace=wrap;html=1;fillColor=#d5e8d4;strokeColor=#82b366;" vertex="1" parent="1">
          <mxGeometry x="480" y="842" width="40" height="40" as="geometry" />
        </mxCell>
        <mxCell id="MEFUFmm3cKLQaKz43sfX-222" value="F" style="rounded=0;whiteSpace=wrap;html=1;fillColor=#f8cecc;strokeColor=#b85450;" vertex="1" parent="1">
          <mxGeometry x="520" y="842" width="40" height="40" as="geometry" />
        </mxCell>
        <mxCell id="MEFUFmm3cKLQaKz43sfX-223" value="F" style="rounded=0;whiteSpace=wrap;html=1;fillColor=#f8cecc;strokeColor=#b85450;" vertex="1" parent="1">
          <mxGeometry x="560" y="842" width="40" height="40" as="geometry" />
        </mxCell>
        <mxCell id="MEFUFmm3cKLQaKz43sfX-224" value="F" style="rounded=0;whiteSpace=wrap;html=1;fillColor=#f8cecc;strokeColor=#b85450;" vertex="1" parent="1">
          <mxGeometry x="600" y="842" width="40" height="40" as="geometry" />
        </mxCell>
        <mxCell id="MEFUFmm3cKLQaKz43sfX-225" value="F" style="rounded=0;whiteSpace=wrap;html=1;fillColor=#f8cecc;strokeColor=#b85450;" vertex="1" parent="1">
          <mxGeometry x="640" y="842" width="40" height="40" as="geometry" />
        </mxCell>
        <mxCell id="MEFUFmm3cKLQaKz43sfX-226" value="F" style="rounded=0;whiteSpace=wrap;html=1;fillColor=#f8cecc;strokeColor=#b85450;" vertex="1" parent="1">
          <mxGeometry x="680" y="842" width="40" height="40" as="geometry" />
        </mxCell>
        <mxCell id="MEFUFmm3cKLQaKz43sfX-227" value="2" style="rounded=0;orthogonalLoop=1;jettySize=auto;html=1;exitX=0;exitY=0.5;exitDx=0;exitDy=0;shape=link;fillColor=#d5e8d4;strokeColor=#82b366;" edge="1" parent="1" source="MEFUFmm3cKLQaKz43sfX-229" target="MEFUFmm3cKLQaKz43sfX-231">
          <mxGeometry relative="1" as="geometry">
            <mxPoint as="offset" />
          </mxGeometry>
        </mxCell>
        <mxCell id="MEFUFmm3cKLQaKz43sfX-228" value="5" style="rounded=0;orthogonalLoop=1;jettySize=auto;html=1;exitX=1;exitY=0.5;exitDx=0;exitDy=0;shape=link;" edge="1" parent="1" source="MEFUFmm3cKLQaKz43sfX-229" target="MEFUFmm3cKLQaKz43sfX-234">
          <mxGeometry relative="1" as="geometry" />
        </mxCell>
        <mxCell id="MEFUFmm3cKLQaKz43sfX-229" value="1" style="ellipse;whiteSpace=wrap;html=1;aspect=fixed;fillColor=#dae8fc;strokeColor=#6c8ebf;" vertex="1" parent="1">
          <mxGeometry x="160" y="682" width="40" height="40" as="geometry" />
        </mxCell>
        <mxCell id="MEFUFmm3cKLQaKz43sfX-230" value="6" style="rounded=0;orthogonalLoop=1;jettySize=auto;html=1;exitX=0.5;exitY=1;exitDx=0;exitDy=0;entryX=0;entryY=0.5;entryDx=0;entryDy=0;shape=link;fillColor=#d5e8d4;strokeColor=#82b366;" edge="1" parent="1" source="MEFUFmm3cKLQaKz43sfX-231" target="MEFUFmm3cKLQaKz43sfX-232">
          <mxGeometry relative="1" as="geometry" />
        </mxCell>
        <mxCell id="MEFUFmm3cKLQaKz43sfX-231" value="0" style="ellipse;whiteSpace=wrap;html=1;aspect=fixed;fillColor=#d5e8d4;strokeColor=#82b366;" vertex="1" parent="1">
          <mxGeometry x="80" y="762" width="40" height="40" as="geometry" />
        </mxCell>
        <mxCell id="MEFUFmm3cKLQaKz43sfX-232" value="2" style="ellipse;whiteSpace=wrap;html=1;aspect=fixed;" vertex="1" parent="1">
          <mxGeometry x="160" y="842" width="40" height="40" as="geometry" />
        </mxCell>
        <mxCell id="MEFUFmm3cKLQaKz43sfX-233" value="8" style="rounded=0;orthogonalLoop=1;jettySize=auto;html=1;exitX=0.5;exitY=1;exitDx=0;exitDy=0;entryX=1;entryY=0.5;entryDx=0;entryDy=0;shape=link;" edge="1" parent="1" source="MEFUFmm3cKLQaKz43sfX-234" target="MEFUFmm3cKLQaKz43sfX-232">
          <mxGeometry relative="1" as="geometry" />
        </mxCell>
        <mxCell id="MEFUFmm3cKLQaKz43sfX-234" value="3" style="ellipse;whiteSpace=wrap;html=1;aspect=fixed;" vertex="1" parent="1">
          <mxGeometry x="240" y="762" width="40" height="40" as="geometry" />
        </mxCell>
        <mxCell id="MEFUFmm3cKLQaKz43sfX-235" value="15" style="rounded=0;orthogonalLoop=1;jettySize=auto;html=1;exitX=0;exitY=0.5;exitDx=0;exitDy=0;shape=link;" edge="1" parent="1" source="MEFUFmm3cKLQaKz43sfX-237" target="MEFUFmm3cKLQaKz43sfX-234">
          <mxGeometry relative="1" as="geometry" />
        </mxCell>
        <mxCell id="MEFUFmm3cKLQaKz43sfX-236" value="6" style="rounded=0;orthogonalLoop=1;jettySize=auto;html=1;exitX=0.5;exitY=1;exitDx=0;exitDy=0;shape=link;" edge="1" parent="1" source="MEFUFmm3cKLQaKz43sfX-237" target="MEFUFmm3cKLQaKz43sfX-239">
          <mxGeometry relative="1" as="geometry" />
        </mxCell>
        <mxCell id="MEFUFmm3cKLQaKz43sfX-237" value="5" style="ellipse;whiteSpace=wrap;html=1;aspect=fixed;" vertex="1" parent="1">
          <mxGeometry x="320" y="682" width="40" height="40" as="geometry" />
        </mxCell>
        <mxCell id="MEFUFmm3cKLQaKz43sfX-238" value="10" style="rounded=0;orthogonalLoop=1;jettySize=auto;html=1;exitX=0;exitY=0.5;exitDx=0;exitDy=0;entryX=0.5;entryY=1;entryDx=0;entryDy=0;shape=link;" edge="1" parent="1" source="MEFUFmm3cKLQaKz43sfX-239" target="MEFUFmm3cKLQaKz43sfX-234">
          <mxGeometry relative="1" as="geometry" />
        </mxCell>
        <mxCell id="MEFUFmm3cKLQaKz43sfX-239" value="4" style="ellipse;whiteSpace=wrap;html=1;aspect=fixed;" vertex="1" parent="1">
          <mxGeometry x="320" y="842" width="40" height="40" as="geometry" />
        </mxCell>
        <mxCell id="MEFUFmm3cKLQaKz43sfX-240" value="current node" style="rounded=0;whiteSpace=wrap;html=1;" vertex="1" parent="1">
          <mxGeometry x="400" y="682" width="120" height="40" as="geometry" />
        </mxCell>
        <mxCell id="MEFUFmm3cKLQaKz43sfX-241" value="1" style="ellipse;whiteSpace=wrap;html=1;aspect=fixed;fillColor=#dae8fc;strokeColor=#6c8ebf;" vertex="1" parent="1">
          <mxGeometry x="560" y="682" width="40" height="40" as="geometry" />
        </mxCell>
        <mxCell id="MEFUFmm3cKLQaKz43sfX-242" value="Distance" style="rounded=0;whiteSpace=wrap;html=1;" vertex="1" parent="1">
          <mxGeometry x="400" y="1145" width="80" height="40" as="geometry" />
        </mxCell>
        <mxCell id="MEFUFmm3cKLQaKz43sfX-243" value="0" style="rounded=0;whiteSpace=wrap;html=1;" vertex="1" parent="1">
          <mxGeometry x="480" y="1105" width="40" height="40" as="geometry" />
        </mxCell>
        <mxCell id="MEFUFmm3cKLQaKz43sfX-244" value="1" style="rounded=0;whiteSpace=wrap;html=1;fillColor=#dae8fc;strokeColor=#6c8ebf;" vertex="1" parent="1">
          <mxGeometry x="520" y="1105" width="40" height="40" as="geometry" />
        </mxCell>
        <mxCell id="MEFUFmm3cKLQaKz43sfX-245" value="2" style="rounded=0;whiteSpace=wrap;html=1;" vertex="1" parent="1">
          <mxGeometry x="560" y="1105" width="40" height="40" as="geometry" />
        </mxCell>
        <mxCell id="MEFUFmm3cKLQaKz43sfX-246" value="3" style="rounded=0;whiteSpace=wrap;html=1;" vertex="1" parent="1">
          <mxGeometry x="600" y="1105" width="40" height="40" as="geometry" />
        </mxCell>
        <mxCell id="MEFUFmm3cKLQaKz43sfX-247" value="4" style="rounded=0;whiteSpace=wrap;html=1;" vertex="1" parent="1">
          <mxGeometry x="640" y="1105" width="40" height="40" as="geometry" />
        </mxCell>
        <mxCell id="MEFUFmm3cKLQaKz43sfX-248" value="5" style="rounded=0;whiteSpace=wrap;html=1;" vertex="1" parent="1">
          <mxGeometry x="680" y="1105" width="40" height="40" as="geometry" />
        </mxCell>
        <mxCell id="MEFUFmm3cKLQaKz43sfX-249" value="0" style="rounded=0;whiteSpace=wrap;html=1;" vertex="1" parent="1">
          <mxGeometry x="480" y="1145" width="40" height="40" as="geometry" />
        </mxCell>
        <mxCell id="MEFUFmm3cKLQaKz43sfX-250" value="2" style="rounded=0;whiteSpace=wrap;html=1;" vertex="1" parent="1">
          <mxGeometry x="520" y="1145" width="40" height="40" as="geometry" />
        </mxCell>
        <mxCell id="MEFUFmm3cKLQaKz43sfX-251" value="6" style="rounded=0;whiteSpace=wrap;html=1;" vertex="1" parent="1">
          <mxGeometry x="560" y="1145" width="40" height="40" as="geometry" />
        </mxCell>
        <mxCell id="MEFUFmm3cKLQaKz43sfX-252" value="7" style="rounded=0;whiteSpace=wrap;html=1;" vertex="1" parent="1">
          <mxGeometry x="600" y="1145" width="40" height="40" as="geometry" />
        </mxCell>
        <mxCell id="MEFUFmm3cKLQaKz43sfX-253" value="inf" style="rounded=0;whiteSpace=wrap;html=1;" vertex="1" parent="1">
          <mxGeometry x="640" y="1145" width="40" height="40" as="geometry" />
        </mxCell>
        <mxCell id="MEFUFmm3cKLQaKz43sfX-254" value="inf" style="rounded=0;whiteSpace=wrap;html=1;" vertex="1" parent="1">
          <mxGeometry x="680" y="1145" width="40" height="40" as="geometry" />
        </mxCell>
        <mxCell id="MEFUFmm3cKLQaKz43sfX-255" value="Visited" style="rounded=0;whiteSpace=wrap;html=1;" vertex="1" parent="1">
          <mxGeometry x="400" y="1185" width="80" height="40" as="geometry" />
        </mxCell>
        <mxCell id="MEFUFmm3cKLQaKz43sfX-256" value="T" style="rounded=0;whiteSpace=wrap;html=1;fillColor=#d5e8d4;strokeColor=#82b366;" vertex="1" parent="1">
          <mxGeometry x="480" y="1185" width="40" height="40" as="geometry" />
        </mxCell>
        <mxCell id="MEFUFmm3cKLQaKz43sfX-257" value="T" style="rounded=0;whiteSpace=wrap;html=1;fillColor=#d5e8d4;strokeColor=#82b366;" vertex="1" parent="1">
          <mxGeometry x="520" y="1185" width="40" height="40" as="geometry" />
        </mxCell>
        <mxCell id="MEFUFmm3cKLQaKz43sfX-258" value="F" style="rounded=0;whiteSpace=wrap;html=1;fillColor=#f8cecc;strokeColor=#b85450;" vertex="1" parent="1">
          <mxGeometry x="560" y="1185" width="40" height="40" as="geometry" />
        </mxCell>
        <mxCell id="MEFUFmm3cKLQaKz43sfX-259" value="F" style="rounded=0;whiteSpace=wrap;html=1;fillColor=#f8cecc;strokeColor=#b85450;" vertex="1" parent="1">
          <mxGeometry x="600" y="1185" width="40" height="40" as="geometry" />
        </mxCell>
        <mxCell id="MEFUFmm3cKLQaKz43sfX-260" value="F" style="rounded=0;whiteSpace=wrap;html=1;fillColor=#f8cecc;strokeColor=#b85450;" vertex="1" parent="1">
          <mxGeometry x="640" y="1185" width="40" height="40" as="geometry" />
        </mxCell>
        <mxCell id="MEFUFmm3cKLQaKz43sfX-261" value="F" style="rounded=0;whiteSpace=wrap;html=1;fillColor=#f8cecc;strokeColor=#b85450;" vertex="1" parent="1">
          <mxGeometry x="680" y="1185" width="40" height="40" as="geometry" />
        </mxCell>
        <mxCell id="MEFUFmm3cKLQaKz43sfX-262" value="2" style="rounded=0;orthogonalLoop=1;jettySize=auto;html=1;exitX=0;exitY=0.5;exitDx=0;exitDy=0;shape=link;fillColor=#d5e8d4;strokeColor=#82b366;" edge="1" parent="1" source="MEFUFmm3cKLQaKz43sfX-264" target="MEFUFmm3cKLQaKz43sfX-266">
          <mxGeometry relative="1" as="geometry">
            <mxPoint as="offset" />
          </mxGeometry>
        </mxCell>
        <mxCell id="MEFUFmm3cKLQaKz43sfX-263" value="5" style="rounded=0;orthogonalLoop=1;jettySize=auto;html=1;exitX=1;exitY=0.5;exitDx=0;exitDy=0;shape=link;fillColor=#d5e8d4;strokeColor=#82b366;" edge="1" parent="1" source="MEFUFmm3cKLQaKz43sfX-264" target="MEFUFmm3cKLQaKz43sfX-269">
          <mxGeometry relative="1" as="geometry" />
        </mxCell>
        <mxCell id="MEFUFmm3cKLQaKz43sfX-264" value="1" style="ellipse;whiteSpace=wrap;html=1;aspect=fixed;fillColor=#dae8fc;strokeColor=#6c8ebf;" vertex="1" parent="1">
          <mxGeometry x="160" y="1025" width="40" height="40" as="geometry" />
        </mxCell>
        <mxCell id="MEFUFmm3cKLQaKz43sfX-265" value="6" style="rounded=0;orthogonalLoop=1;jettySize=auto;html=1;exitX=0.5;exitY=1;exitDx=0;exitDy=0;entryX=0;entryY=0.5;entryDx=0;entryDy=0;shape=link;fillColor=#d5e8d4;strokeColor=#82b366;" edge="1" parent="1" source="MEFUFmm3cKLQaKz43sfX-266" target="MEFUFmm3cKLQaKz43sfX-267">
          <mxGeometry relative="1" as="geometry" />
        </mxCell>
        <mxCell id="MEFUFmm3cKLQaKz43sfX-266" value="0" style="ellipse;whiteSpace=wrap;html=1;aspect=fixed;fillColor=#d5e8d4;strokeColor=#82b366;" vertex="1" parent="1">
          <mxGeometry x="80" y="1105" width="40" height="40" as="geometry" />
        </mxCell>
        <mxCell id="MEFUFmm3cKLQaKz43sfX-267" value="2" style="ellipse;whiteSpace=wrap;html=1;aspect=fixed;" vertex="1" parent="1">
          <mxGeometry x="160" y="1185" width="40" height="40" as="geometry" />
        </mxCell>
        <mxCell id="MEFUFmm3cKLQaKz43sfX-268" value="8" style="rounded=0;orthogonalLoop=1;jettySize=auto;html=1;exitX=0.5;exitY=1;exitDx=0;exitDy=0;entryX=1;entryY=0.5;entryDx=0;entryDy=0;shape=link;" edge="1" parent="1" source="MEFUFmm3cKLQaKz43sfX-269" target="MEFUFmm3cKLQaKz43sfX-267">
          <mxGeometry relative="1" as="geometry" />
        </mxCell>
        <mxCell id="MEFUFmm3cKLQaKz43sfX-269" value="3" style="ellipse;whiteSpace=wrap;html=1;aspect=fixed;" vertex="1" parent="1">
          <mxGeometry x="240" y="1105" width="40" height="40" as="geometry" />
        </mxCell>
        <mxCell id="MEFUFmm3cKLQaKz43sfX-270" value="15" style="rounded=0;orthogonalLoop=1;jettySize=auto;html=1;exitX=0;exitY=0.5;exitDx=0;exitDy=0;shape=link;" edge="1" parent="1" source="MEFUFmm3cKLQaKz43sfX-272" target="MEFUFmm3cKLQaKz43sfX-269">
          <mxGeometry relative="1" as="geometry" />
        </mxCell>
        <mxCell id="MEFUFmm3cKLQaKz43sfX-271" value="6" style="rounded=0;orthogonalLoop=1;jettySize=auto;html=1;exitX=0.5;exitY=1;exitDx=0;exitDy=0;shape=link;" edge="1" parent="1" source="MEFUFmm3cKLQaKz43sfX-272" target="MEFUFmm3cKLQaKz43sfX-274">
          <mxGeometry relative="1" as="geometry" />
        </mxCell>
        <mxCell id="MEFUFmm3cKLQaKz43sfX-272" value="5" style="ellipse;whiteSpace=wrap;html=1;aspect=fixed;" vertex="1" parent="1">
          <mxGeometry x="320" y="1025" width="40" height="40" as="geometry" />
        </mxCell>
        <mxCell id="MEFUFmm3cKLQaKz43sfX-273" value="10" style="rounded=0;orthogonalLoop=1;jettySize=auto;html=1;exitX=0;exitY=0.5;exitDx=0;exitDy=0;entryX=0.5;entryY=1;entryDx=0;entryDy=0;shape=link;" edge="1" parent="1" source="MEFUFmm3cKLQaKz43sfX-274" target="MEFUFmm3cKLQaKz43sfX-269">
          <mxGeometry relative="1" as="geometry" />
        </mxCell>
        <mxCell id="MEFUFmm3cKLQaKz43sfX-274" value="4" style="ellipse;whiteSpace=wrap;html=1;aspect=fixed;" vertex="1" parent="1">
          <mxGeometry x="320" y="1185" width="40" height="40" as="geometry" />
        </mxCell>
        <mxCell id="MEFUFmm3cKLQaKz43sfX-275" value="current node" style="rounded=0;whiteSpace=wrap;html=1;" vertex="1" parent="1">
          <mxGeometry x="400" y="1025" width="120" height="40" as="geometry" />
        </mxCell>
        <mxCell id="MEFUFmm3cKLQaKz43sfX-276" value="1" style="ellipse;whiteSpace=wrap;html=1;aspect=fixed;fillColor=#dae8fc;strokeColor=#6c8ebf;" vertex="1" parent="1">
          <mxGeometry x="560" y="1025" width="40" height="40" as="geometry" />
        </mxCell>
        <mxCell id="MEFUFmm3cKLQaKz43sfX-277" value="Distance" style="rounded=0;whiteSpace=wrap;html=1;" vertex="1" parent="1">
          <mxGeometry x="400" y="1425" width="80" height="40" as="geometry" />
        </mxCell>
        <mxCell id="MEFUFmm3cKLQaKz43sfX-278" value="0" style="rounded=0;whiteSpace=wrap;html=1;" vertex="1" parent="1">
          <mxGeometry x="480" y="1385" width="40" height="40" as="geometry" />
        </mxCell>
        <mxCell id="MEFUFmm3cKLQaKz43sfX-279" value="1" style="rounded=0;whiteSpace=wrap;html=1;" vertex="1" parent="1">
          <mxGeometry x="520" y="1385" width="40" height="40" as="geometry" />
        </mxCell>
        <mxCell id="MEFUFmm3cKLQaKz43sfX-280" value="2" style="rounded=0;whiteSpace=wrap;html=1;fillColor=#dae8fc;strokeColor=#6c8ebf;" vertex="1" parent="1">
          <mxGeometry x="560" y="1385" width="40" height="40" as="geometry" />
        </mxCell>
        <mxCell id="MEFUFmm3cKLQaKz43sfX-281" value="3" style="rounded=0;whiteSpace=wrap;html=1;" vertex="1" parent="1">
          <mxGeometry x="600" y="1385" width="40" height="40" as="geometry" />
        </mxCell>
        <mxCell id="MEFUFmm3cKLQaKz43sfX-282" value="4" style="rounded=0;whiteSpace=wrap;html=1;" vertex="1" parent="1">
          <mxGeometry x="640" y="1385" width="40" height="40" as="geometry" />
        </mxCell>
        <mxCell id="MEFUFmm3cKLQaKz43sfX-283" value="5" style="rounded=0;whiteSpace=wrap;html=1;" vertex="1" parent="1">
          <mxGeometry x="680" y="1385" width="40" height="40" as="geometry" />
        </mxCell>
        <mxCell id="MEFUFmm3cKLQaKz43sfX-284" value="0" style="rounded=0;whiteSpace=wrap;html=1;" vertex="1" parent="1">
          <mxGeometry x="480" y="1425" width="40" height="40" as="geometry" />
        </mxCell>
        <mxCell id="MEFUFmm3cKLQaKz43sfX-285" value="2" style="rounded=0;whiteSpace=wrap;html=1;" vertex="1" parent="1">
          <mxGeometry x="520" y="1425" width="40" height="40" as="geometry" />
        </mxCell>
        <mxCell id="MEFUFmm3cKLQaKz43sfX-286" value="6" style="rounded=0;whiteSpace=wrap;html=1;" vertex="1" parent="1">
          <mxGeometry x="560" y="1425" width="40" height="40" as="geometry" />
        </mxCell>
        <mxCell id="MEFUFmm3cKLQaKz43sfX-287" value="7" style="rounded=0;whiteSpace=wrap;html=1;" vertex="1" parent="1">
          <mxGeometry x="600" y="1425" width="40" height="40" as="geometry" />
        </mxCell>
        <mxCell id="MEFUFmm3cKLQaKz43sfX-288" value="inf" style="rounded=0;whiteSpace=wrap;html=1;" vertex="1" parent="1">
          <mxGeometry x="640" y="1425" width="40" height="40" as="geometry" />
        </mxCell>
        <mxCell id="MEFUFmm3cKLQaKz43sfX-289" value="inf" style="rounded=0;whiteSpace=wrap;html=1;" vertex="1" parent="1">
          <mxGeometry x="680" y="1425" width="40" height="40" as="geometry" />
        </mxCell>
        <mxCell id="MEFUFmm3cKLQaKz43sfX-290" value="Visited" style="rounded=0;whiteSpace=wrap;html=1;" vertex="1" parent="1">
          <mxGeometry x="400" y="1465" width="80" height="40" as="geometry" />
        </mxCell>
        <mxCell id="MEFUFmm3cKLQaKz43sfX-291" value="T" style="rounded=0;whiteSpace=wrap;html=1;fillColor=#d5e8d4;strokeColor=#82b366;" vertex="1" parent="1">
          <mxGeometry x="480" y="1465" width="40" height="40" as="geometry" />
        </mxCell>
        <mxCell id="MEFUFmm3cKLQaKz43sfX-292" value="T" style="rounded=0;whiteSpace=wrap;html=1;fillColor=#d5e8d4;strokeColor=#82b366;" vertex="1" parent="1">
          <mxGeometry x="520" y="1465" width="40" height="40" as="geometry" />
        </mxCell>
        <mxCell id="MEFUFmm3cKLQaKz43sfX-293" value="F" style="rounded=0;whiteSpace=wrap;html=1;fillColor=#f8cecc;strokeColor=#b85450;" vertex="1" parent="1">
          <mxGeometry x="560" y="1465" width="40" height="40" as="geometry" />
        </mxCell>
        <mxCell id="MEFUFmm3cKLQaKz43sfX-294" value="F" style="rounded=0;whiteSpace=wrap;html=1;fillColor=#f8cecc;strokeColor=#b85450;" vertex="1" parent="1">
          <mxGeometry x="600" y="1465" width="40" height="40" as="geometry" />
        </mxCell>
        <mxCell id="MEFUFmm3cKLQaKz43sfX-295" value="F" style="rounded=0;whiteSpace=wrap;html=1;fillColor=#f8cecc;strokeColor=#b85450;" vertex="1" parent="1">
          <mxGeometry x="640" y="1465" width="40" height="40" as="geometry" />
        </mxCell>
        <mxCell id="MEFUFmm3cKLQaKz43sfX-296" value="F" style="rounded=0;whiteSpace=wrap;html=1;fillColor=#f8cecc;strokeColor=#b85450;" vertex="1" parent="1">
          <mxGeometry x="680" y="1465" width="40" height="40" as="geometry" />
        </mxCell>
        <mxCell id="MEFUFmm3cKLQaKz43sfX-297" value="2" style="rounded=0;orthogonalLoop=1;jettySize=auto;html=1;exitX=0;exitY=0.5;exitDx=0;exitDy=0;shape=link;fillColor=#d5e8d4;strokeColor=#82b366;" edge="1" parent="1" source="MEFUFmm3cKLQaKz43sfX-299" target="MEFUFmm3cKLQaKz43sfX-301">
          <mxGeometry relative="1" as="geometry">
            <mxPoint as="offset" />
          </mxGeometry>
        </mxCell>
        <mxCell id="MEFUFmm3cKLQaKz43sfX-298" value="5" style="rounded=0;orthogonalLoop=1;jettySize=auto;html=1;exitX=1;exitY=0.5;exitDx=0;exitDy=0;shape=link;fillColor=#d5e8d4;strokeColor=#82b366;" edge="1" parent="1" source="MEFUFmm3cKLQaKz43sfX-299" target="MEFUFmm3cKLQaKz43sfX-304">
          <mxGeometry relative="1" as="geometry" />
        </mxCell>
        <mxCell id="MEFUFmm3cKLQaKz43sfX-299" value="1" style="ellipse;whiteSpace=wrap;html=1;aspect=fixed;fillColor=#d5e8d4;strokeColor=#82b366;" vertex="1" parent="1">
          <mxGeometry x="160" y="1305" width="40" height="40" as="geometry" />
        </mxCell>
        <mxCell id="MEFUFmm3cKLQaKz43sfX-300" value="6" style="rounded=0;orthogonalLoop=1;jettySize=auto;html=1;exitX=0.5;exitY=1;exitDx=0;exitDy=0;entryX=0;entryY=0.5;entryDx=0;entryDy=0;shape=link;fillColor=#d5e8d4;strokeColor=#82b366;" edge="1" parent="1" source="MEFUFmm3cKLQaKz43sfX-301" target="MEFUFmm3cKLQaKz43sfX-302">
          <mxGeometry relative="1" as="geometry" />
        </mxCell>
        <mxCell id="MEFUFmm3cKLQaKz43sfX-301" value="0" style="ellipse;whiteSpace=wrap;html=1;aspect=fixed;fillColor=#d5e8d4;strokeColor=#82b366;" vertex="1" parent="1">
          <mxGeometry x="80" y="1385" width="40" height="40" as="geometry" />
        </mxCell>
        <mxCell id="MEFUFmm3cKLQaKz43sfX-302" value="2" style="ellipse;whiteSpace=wrap;html=1;aspect=fixed;fillColor=#dae8fc;strokeColor=#6c8ebf;" vertex="1" parent="1">
          <mxGeometry x="160" y="1465" width="40" height="40" as="geometry" />
        </mxCell>
        <mxCell id="MEFUFmm3cKLQaKz43sfX-303" value="8" style="rounded=0;orthogonalLoop=1;jettySize=auto;html=1;exitX=0.5;exitY=1;exitDx=0;exitDy=0;entryX=1;entryY=0.5;entryDx=0;entryDy=0;shape=link;" edge="1" parent="1" source="MEFUFmm3cKLQaKz43sfX-304" target="MEFUFmm3cKLQaKz43sfX-302">
          <mxGeometry relative="1" as="geometry" />
        </mxCell>
        <mxCell id="MEFUFmm3cKLQaKz43sfX-304" value="3" style="ellipse;whiteSpace=wrap;html=1;aspect=fixed;" vertex="1" parent="1">
          <mxGeometry x="240" y="1385" width="40" height="40" as="geometry" />
        </mxCell>
        <mxCell id="MEFUFmm3cKLQaKz43sfX-305" value="15" style="rounded=0;orthogonalLoop=1;jettySize=auto;html=1;exitX=0;exitY=0.5;exitDx=0;exitDy=0;shape=link;" edge="1" parent="1" source="MEFUFmm3cKLQaKz43sfX-307" target="MEFUFmm3cKLQaKz43sfX-304">
          <mxGeometry relative="1" as="geometry" />
        </mxCell>
        <mxCell id="MEFUFmm3cKLQaKz43sfX-306" value="6" style="rounded=0;orthogonalLoop=1;jettySize=auto;html=1;exitX=0.5;exitY=1;exitDx=0;exitDy=0;shape=link;" edge="1" parent="1" source="MEFUFmm3cKLQaKz43sfX-307" target="MEFUFmm3cKLQaKz43sfX-309">
          <mxGeometry relative="1" as="geometry" />
        </mxCell>
        <mxCell id="MEFUFmm3cKLQaKz43sfX-307" value="5" style="ellipse;whiteSpace=wrap;html=1;aspect=fixed;" vertex="1" parent="1">
          <mxGeometry x="320" y="1305" width="40" height="40" as="geometry" />
        </mxCell>
        <mxCell id="MEFUFmm3cKLQaKz43sfX-308" value="10" style="rounded=0;orthogonalLoop=1;jettySize=auto;html=1;exitX=0;exitY=0.5;exitDx=0;exitDy=0;entryX=0.5;entryY=1;entryDx=0;entryDy=0;shape=link;" edge="1" parent="1" source="MEFUFmm3cKLQaKz43sfX-309" target="MEFUFmm3cKLQaKz43sfX-304">
          <mxGeometry relative="1" as="geometry" />
        </mxCell>
        <mxCell id="MEFUFmm3cKLQaKz43sfX-309" value="4" style="ellipse;whiteSpace=wrap;html=1;aspect=fixed;" vertex="1" parent="1">
          <mxGeometry x="320" y="1465" width="40" height="40" as="geometry" />
        </mxCell>
        <mxCell id="MEFUFmm3cKLQaKz43sfX-310" value="current node" style="rounded=0;whiteSpace=wrap;html=1;" vertex="1" parent="1">
          <mxGeometry x="400" y="1305" width="120" height="40" as="geometry" />
        </mxCell>
        <mxCell id="MEFUFmm3cKLQaKz43sfX-311" value="2" style="ellipse;whiteSpace=wrap;html=1;aspect=fixed;fillColor=#dae8fc;strokeColor=#6c8ebf;" vertex="1" parent="1">
          <mxGeometry x="560" y="1305" width="40" height="40" as="geometry" />
        </mxCell>
        <mxCell id="MEFUFmm3cKLQaKz43sfX-312" value="Distance" style="rounded=0;whiteSpace=wrap;html=1;" vertex="1" parent="1">
          <mxGeometry x="397" y="1782" width="80" height="40" as="geometry" />
        </mxCell>
        <mxCell id="MEFUFmm3cKLQaKz43sfX-313" value="0" style="rounded=0;whiteSpace=wrap;html=1;" vertex="1" parent="1">
          <mxGeometry x="477" y="1742" width="40" height="40" as="geometry" />
        </mxCell>
        <mxCell id="MEFUFmm3cKLQaKz43sfX-314" value="1" style="rounded=0;whiteSpace=wrap;html=1;" vertex="1" parent="1">
          <mxGeometry x="517" y="1742" width="40" height="40" as="geometry" />
        </mxCell>
        <mxCell id="MEFUFmm3cKLQaKz43sfX-315" value="2" style="rounded=0;whiteSpace=wrap;html=1;fillColor=#dae8fc;strokeColor=#6c8ebf;" vertex="1" parent="1">
          <mxGeometry x="557" y="1742" width="40" height="40" as="geometry" />
        </mxCell>
        <mxCell id="MEFUFmm3cKLQaKz43sfX-316" value="3" style="rounded=0;whiteSpace=wrap;html=1;" vertex="1" parent="1">
          <mxGeometry x="597" y="1742" width="40" height="40" as="geometry" />
        </mxCell>
        <mxCell id="MEFUFmm3cKLQaKz43sfX-317" value="4" style="rounded=0;whiteSpace=wrap;html=1;" vertex="1" parent="1">
          <mxGeometry x="637" y="1742" width="40" height="40" as="geometry" />
        </mxCell>
        <mxCell id="MEFUFmm3cKLQaKz43sfX-318" value="5" style="rounded=0;whiteSpace=wrap;html=1;" vertex="1" parent="1">
          <mxGeometry x="677" y="1742" width="40" height="40" as="geometry" />
        </mxCell>
        <mxCell id="MEFUFmm3cKLQaKz43sfX-319" value="0" style="rounded=0;whiteSpace=wrap;html=1;" vertex="1" parent="1">
          <mxGeometry x="477" y="1782" width="40" height="40" as="geometry" />
        </mxCell>
        <mxCell id="MEFUFmm3cKLQaKz43sfX-320" value="2" style="rounded=0;whiteSpace=wrap;html=1;" vertex="1" parent="1">
          <mxGeometry x="517" y="1782" width="40" height="40" as="geometry" />
        </mxCell>
        <mxCell id="MEFUFmm3cKLQaKz43sfX-321" value="6" style="rounded=0;whiteSpace=wrap;html=1;" vertex="1" parent="1">
          <mxGeometry x="557" y="1782" width="40" height="40" as="geometry" />
        </mxCell>
        <mxCell id="MEFUFmm3cKLQaKz43sfX-322" value="7" style="rounded=0;whiteSpace=wrap;html=1;" vertex="1" parent="1">
          <mxGeometry x="597" y="1782" width="40" height="40" as="geometry" />
        </mxCell>
        <mxCell id="MEFUFmm3cKLQaKz43sfX-323" value="inf" style="rounded=0;whiteSpace=wrap;html=1;" vertex="1" parent="1">
          <mxGeometry x="637" y="1782" width="40" height="40" as="geometry" />
        </mxCell>
        <mxCell id="MEFUFmm3cKLQaKz43sfX-324" value="inf" style="rounded=0;whiteSpace=wrap;html=1;" vertex="1" parent="1">
          <mxGeometry x="677" y="1782" width="40" height="40" as="geometry" />
        </mxCell>
        <mxCell id="MEFUFmm3cKLQaKz43sfX-325" value="Visited" style="rounded=0;whiteSpace=wrap;html=1;" vertex="1" parent="1">
          <mxGeometry x="397" y="1822" width="80" height="40" as="geometry" />
        </mxCell>
        <mxCell id="MEFUFmm3cKLQaKz43sfX-326" value="T" style="rounded=0;whiteSpace=wrap;html=1;fillColor=#d5e8d4;strokeColor=#82b366;" vertex="1" parent="1">
          <mxGeometry x="477" y="1822" width="40" height="40" as="geometry" />
        </mxCell>
        <mxCell id="MEFUFmm3cKLQaKz43sfX-327" value="T" style="rounded=0;whiteSpace=wrap;html=1;fillColor=#d5e8d4;strokeColor=#82b366;" vertex="1" parent="1">
          <mxGeometry x="517" y="1822" width="40" height="40" as="geometry" />
        </mxCell>
        <mxCell id="MEFUFmm3cKLQaKz43sfX-328" value="T" style="rounded=0;whiteSpace=wrap;html=1;fillColor=#d5e8d4;strokeColor=#82b366;" vertex="1" parent="1">
          <mxGeometry x="557" y="1822" width="40" height="40" as="geometry" />
        </mxCell>
        <mxCell id="MEFUFmm3cKLQaKz43sfX-329" value="F" style="rounded=0;whiteSpace=wrap;html=1;fillColor=#f8cecc;strokeColor=#b85450;" vertex="1" parent="1">
          <mxGeometry x="597" y="1822" width="40" height="40" as="geometry" />
        </mxCell>
        <mxCell id="MEFUFmm3cKLQaKz43sfX-330" value="F" style="rounded=0;whiteSpace=wrap;html=1;fillColor=#f8cecc;strokeColor=#b85450;" vertex="1" parent="1">
          <mxGeometry x="637" y="1822" width="40" height="40" as="geometry" />
        </mxCell>
        <mxCell id="MEFUFmm3cKLQaKz43sfX-331" value="F" style="rounded=0;whiteSpace=wrap;html=1;fillColor=#f8cecc;strokeColor=#b85450;" vertex="1" parent="1">
          <mxGeometry x="677" y="1822" width="40" height="40" as="geometry" />
        </mxCell>
        <mxCell id="MEFUFmm3cKLQaKz43sfX-332" value="2" style="rounded=0;orthogonalLoop=1;jettySize=auto;html=1;exitX=0;exitY=0.5;exitDx=0;exitDy=0;shape=link;fillColor=#d5e8d4;strokeColor=#82b366;" edge="1" parent="1" source="MEFUFmm3cKLQaKz43sfX-334" target="MEFUFmm3cKLQaKz43sfX-336">
          <mxGeometry relative="1" as="geometry">
            <mxPoint as="offset" />
          </mxGeometry>
        </mxCell>
        <mxCell id="MEFUFmm3cKLQaKz43sfX-333" value="5" style="rounded=0;orthogonalLoop=1;jettySize=auto;html=1;exitX=1;exitY=0.5;exitDx=0;exitDy=0;shape=link;fillColor=#d5e8d4;strokeColor=#82b366;" edge="1" parent="1" source="MEFUFmm3cKLQaKz43sfX-334" target="MEFUFmm3cKLQaKz43sfX-339">
          <mxGeometry relative="1" as="geometry" />
        </mxCell>
        <mxCell id="MEFUFmm3cKLQaKz43sfX-334" value="1" style="ellipse;whiteSpace=wrap;html=1;aspect=fixed;fillColor=#d5e8d4;strokeColor=#82b366;" vertex="1" parent="1">
          <mxGeometry x="157" y="1662" width="40" height="40" as="geometry" />
        </mxCell>
        <mxCell id="MEFUFmm3cKLQaKz43sfX-335" value="6" style="rounded=0;orthogonalLoop=1;jettySize=auto;html=1;exitX=0.5;exitY=1;exitDx=0;exitDy=0;entryX=0;entryY=0.5;entryDx=0;entryDy=0;shape=link;fillColor=#d5e8d4;strokeColor=#82b366;" edge="1" parent="1" source="MEFUFmm3cKLQaKz43sfX-336" target="MEFUFmm3cKLQaKz43sfX-337">
          <mxGeometry relative="1" as="geometry" />
        </mxCell>
        <mxCell id="MEFUFmm3cKLQaKz43sfX-336" value="0" style="ellipse;whiteSpace=wrap;html=1;aspect=fixed;fillColor=#d5e8d4;strokeColor=#82b366;" vertex="1" parent="1">
          <mxGeometry x="77" y="1742" width="40" height="40" as="geometry" />
        </mxCell>
        <mxCell id="MEFUFmm3cKLQaKz43sfX-337" value="2" style="ellipse;whiteSpace=wrap;html=1;aspect=fixed;fillColor=#dae8fc;strokeColor=#6c8ebf;" vertex="1" parent="1">
          <mxGeometry x="157" y="1822" width="40" height="40" as="geometry" />
        </mxCell>
        <mxCell id="MEFUFmm3cKLQaKz43sfX-338" value="8" style="rounded=0;orthogonalLoop=1;jettySize=auto;html=1;exitX=0.5;exitY=1;exitDx=0;exitDy=0;entryX=1;entryY=0.5;entryDx=0;entryDy=0;shape=link;fillColor=#d5e8d4;strokeColor=#82b366;" edge="1" parent="1" source="MEFUFmm3cKLQaKz43sfX-339" target="MEFUFmm3cKLQaKz43sfX-337">
          <mxGeometry relative="1" as="geometry" />
        </mxCell>
        <mxCell id="MEFUFmm3cKLQaKz43sfX-339" value="3" style="ellipse;whiteSpace=wrap;html=1;aspect=fixed;" vertex="1" parent="1">
          <mxGeometry x="237" y="1742" width="40" height="40" as="geometry" />
        </mxCell>
        <mxCell id="MEFUFmm3cKLQaKz43sfX-340" value="15" style="rounded=0;orthogonalLoop=1;jettySize=auto;html=1;exitX=0;exitY=0.5;exitDx=0;exitDy=0;shape=link;" edge="1" parent="1" source="MEFUFmm3cKLQaKz43sfX-342" target="MEFUFmm3cKLQaKz43sfX-339">
          <mxGeometry relative="1" as="geometry" />
        </mxCell>
        <mxCell id="MEFUFmm3cKLQaKz43sfX-341" value="6" style="rounded=0;orthogonalLoop=1;jettySize=auto;html=1;exitX=0.5;exitY=1;exitDx=0;exitDy=0;shape=link;" edge="1" parent="1" source="MEFUFmm3cKLQaKz43sfX-342" target="MEFUFmm3cKLQaKz43sfX-344">
          <mxGeometry relative="1" as="geometry" />
        </mxCell>
        <mxCell id="MEFUFmm3cKLQaKz43sfX-342" value="5" style="ellipse;whiteSpace=wrap;html=1;aspect=fixed;" vertex="1" parent="1">
          <mxGeometry x="317" y="1662" width="40" height="40" as="geometry" />
        </mxCell>
        <mxCell id="MEFUFmm3cKLQaKz43sfX-343" value="10" style="rounded=0;orthogonalLoop=1;jettySize=auto;html=1;exitX=0;exitY=0.5;exitDx=0;exitDy=0;entryX=0.5;entryY=1;entryDx=0;entryDy=0;shape=link;" edge="1" parent="1" source="MEFUFmm3cKLQaKz43sfX-344" target="MEFUFmm3cKLQaKz43sfX-339">
          <mxGeometry relative="1" as="geometry" />
        </mxCell>
        <mxCell id="MEFUFmm3cKLQaKz43sfX-344" value="4" style="ellipse;whiteSpace=wrap;html=1;aspect=fixed;" vertex="1" parent="1">
          <mxGeometry x="317" y="1822" width="40" height="40" as="geometry" />
        </mxCell>
        <mxCell id="MEFUFmm3cKLQaKz43sfX-345" value="current node" style="rounded=0;whiteSpace=wrap;html=1;" vertex="1" parent="1">
          <mxGeometry x="397" y="1662" width="120" height="40" as="geometry" />
        </mxCell>
        <mxCell id="MEFUFmm3cKLQaKz43sfX-346" value="2" style="ellipse;whiteSpace=wrap;html=1;aspect=fixed;fillColor=#dae8fc;strokeColor=#6c8ebf;" vertex="1" parent="1">
          <mxGeometry x="557" y="1662" width="40" height="40" as="geometry" />
        </mxCell>
        <mxCell id="MEFUFmm3cKLQaKz43sfX-347" value="Distance" style="rounded=0;whiteSpace=wrap;html=1;" vertex="1" parent="1">
          <mxGeometry x="394" y="2449" width="80" height="40" as="geometry" />
        </mxCell>
        <mxCell id="MEFUFmm3cKLQaKz43sfX-348" value="0" style="rounded=0;whiteSpace=wrap;html=1;" vertex="1" parent="1">
          <mxGeometry x="474" y="2409" width="40" height="40" as="geometry" />
        </mxCell>
        <mxCell id="MEFUFmm3cKLQaKz43sfX-349" value="1" style="rounded=0;whiteSpace=wrap;html=1;" vertex="1" parent="1">
          <mxGeometry x="514" y="2409" width="40" height="40" as="geometry" />
        </mxCell>
        <mxCell id="MEFUFmm3cKLQaKz43sfX-350" value="2" style="rounded=0;whiteSpace=wrap;html=1;" vertex="1" parent="1">
          <mxGeometry x="554" y="2409" width="40" height="40" as="geometry" />
        </mxCell>
        <mxCell id="MEFUFmm3cKLQaKz43sfX-351" value="3" style="rounded=0;whiteSpace=wrap;html=1;" vertex="1" parent="1">
          <mxGeometry x="594" y="2409" width="40" height="40" as="geometry" />
        </mxCell>
        <mxCell id="MEFUFmm3cKLQaKz43sfX-352" value="4" style="rounded=0;whiteSpace=wrap;html=1;" vertex="1" parent="1">
          <mxGeometry x="634" y="2409" width="40" height="40" as="geometry" />
        </mxCell>
        <mxCell id="MEFUFmm3cKLQaKz43sfX-353" value="5" style="rounded=0;whiteSpace=wrap;html=1;" vertex="1" parent="1">
          <mxGeometry x="674" y="2409" width="40" height="40" as="geometry" />
        </mxCell>
        <mxCell id="MEFUFmm3cKLQaKz43sfX-354" value="0" style="rounded=0;whiteSpace=wrap;html=1;" vertex="1" parent="1">
          <mxGeometry x="474" y="2449" width="40" height="40" as="geometry" />
        </mxCell>
        <mxCell id="MEFUFmm3cKLQaKz43sfX-355" value="2" style="rounded=0;whiteSpace=wrap;html=1;" vertex="1" parent="1">
          <mxGeometry x="514" y="2449" width="40" height="40" as="geometry" />
        </mxCell>
        <mxCell id="MEFUFmm3cKLQaKz43sfX-356" value="6" style="rounded=0;whiteSpace=wrap;html=1;" vertex="1" parent="1">
          <mxGeometry x="554" y="2449" width="40" height="40" as="geometry" />
        </mxCell>
        <mxCell id="MEFUFmm3cKLQaKz43sfX-357" value="7" style="rounded=0;whiteSpace=wrap;html=1;" vertex="1" parent="1">
          <mxGeometry x="594" y="2449" width="40" height="40" as="geometry" />
        </mxCell>
        <mxCell id="MEFUFmm3cKLQaKz43sfX-358" value="17" style="rounded=0;whiteSpace=wrap;html=1;" vertex="1" parent="1">
          <mxGeometry x="634" y="2449" width="40" height="40" as="geometry" />
        </mxCell>
        <mxCell id="MEFUFmm3cKLQaKz43sfX-359" value="22" style="rounded=0;whiteSpace=wrap;html=1;" vertex="1" parent="1">
          <mxGeometry x="674" y="2449" width="40" height="40" as="geometry" />
        </mxCell>
        <mxCell id="MEFUFmm3cKLQaKz43sfX-360" value="Visited" style="rounded=0;whiteSpace=wrap;html=1;" vertex="1" parent="1">
          <mxGeometry x="394" y="2489" width="80" height="40" as="geometry" />
        </mxCell>
        <mxCell id="MEFUFmm3cKLQaKz43sfX-361" value="T" style="rounded=0;whiteSpace=wrap;html=1;fillColor=#d5e8d4;strokeColor=#82b366;" vertex="1" parent="1">
          <mxGeometry x="474" y="2489" width="40" height="40" as="geometry" />
        </mxCell>
        <mxCell id="MEFUFmm3cKLQaKz43sfX-362" value="T" style="rounded=0;whiteSpace=wrap;html=1;fillColor=#d5e8d4;strokeColor=#82b366;" vertex="1" parent="1">
          <mxGeometry x="514" y="2489" width="40" height="40" as="geometry" />
        </mxCell>
        <mxCell id="MEFUFmm3cKLQaKz43sfX-363" value="T" style="rounded=0;whiteSpace=wrap;html=1;fillColor=#d5e8d4;strokeColor=#82b366;" vertex="1" parent="1">
          <mxGeometry x="554" y="2489" width="40" height="40" as="geometry" />
        </mxCell>
        <mxCell id="MEFUFmm3cKLQaKz43sfX-364" value="T" style="rounded=0;whiteSpace=wrap;html=1;fillColor=#d5e8d4;strokeColor=#82b366;" vertex="1" parent="1">
          <mxGeometry x="594" y="2489" width="40" height="40" as="geometry" />
        </mxCell>
        <mxCell id="MEFUFmm3cKLQaKz43sfX-365" value="F" style="rounded=0;whiteSpace=wrap;html=1;fillColor=#f8cecc;strokeColor=#b85450;" vertex="1" parent="1">
          <mxGeometry x="634" y="2489" width="40" height="40" as="geometry" />
        </mxCell>
        <mxCell id="MEFUFmm3cKLQaKz43sfX-366" value="F" style="rounded=0;whiteSpace=wrap;html=1;fillColor=#f8cecc;strokeColor=#b85450;" vertex="1" parent="1">
          <mxGeometry x="674" y="2489" width="40" height="40" as="geometry" />
        </mxCell>
        <mxCell id="MEFUFmm3cKLQaKz43sfX-367" value="2" style="rounded=0;orthogonalLoop=1;jettySize=auto;html=1;exitX=0;exitY=0.5;exitDx=0;exitDy=0;shape=link;fillColor=#d5e8d4;strokeColor=#82b366;" edge="1" parent="1" source="MEFUFmm3cKLQaKz43sfX-369" target="MEFUFmm3cKLQaKz43sfX-371">
          <mxGeometry relative="1" as="geometry">
            <mxPoint as="offset" />
          </mxGeometry>
        </mxCell>
        <mxCell id="MEFUFmm3cKLQaKz43sfX-368" value="5" style="rounded=0;orthogonalLoop=1;jettySize=auto;html=1;exitX=1;exitY=0.5;exitDx=0;exitDy=0;shape=link;fillColor=#d5e8d4;strokeColor=#82b366;" edge="1" parent="1" source="MEFUFmm3cKLQaKz43sfX-369" target="MEFUFmm3cKLQaKz43sfX-374">
          <mxGeometry relative="1" as="geometry" />
        </mxCell>
        <mxCell id="MEFUFmm3cKLQaKz43sfX-369" value="1" style="ellipse;whiteSpace=wrap;html=1;aspect=fixed;fillColor=#d5e8d4;strokeColor=#82b366;" vertex="1" parent="1">
          <mxGeometry x="154" y="2329" width="40" height="40" as="geometry" />
        </mxCell>
        <mxCell id="MEFUFmm3cKLQaKz43sfX-370" value="6" style="rounded=0;orthogonalLoop=1;jettySize=auto;html=1;exitX=0.5;exitY=1;exitDx=0;exitDy=0;entryX=0;entryY=0.5;entryDx=0;entryDy=0;shape=link;fillColor=#d5e8d4;strokeColor=#82b366;" edge="1" parent="1" source="MEFUFmm3cKLQaKz43sfX-371" target="MEFUFmm3cKLQaKz43sfX-372">
          <mxGeometry relative="1" as="geometry" />
        </mxCell>
        <mxCell id="MEFUFmm3cKLQaKz43sfX-371" value="0" style="ellipse;whiteSpace=wrap;html=1;aspect=fixed;fillColor=#d5e8d4;strokeColor=#82b366;" vertex="1" parent="1">
          <mxGeometry x="74" y="2409" width="40" height="40" as="geometry" />
        </mxCell>
        <mxCell id="MEFUFmm3cKLQaKz43sfX-372" value="2" style="ellipse;whiteSpace=wrap;html=1;aspect=fixed;fillColor=#d5e8d4;strokeColor=#82b366;" vertex="1" parent="1">
          <mxGeometry x="154" y="2489" width="40" height="40" as="geometry" />
        </mxCell>
        <mxCell id="MEFUFmm3cKLQaKz43sfX-373" value="8" style="rounded=0;orthogonalLoop=1;jettySize=auto;html=1;exitX=0.5;exitY=1;exitDx=0;exitDy=0;entryX=1;entryY=0.5;entryDx=0;entryDy=0;shape=link;fillColor=#d5e8d4;strokeColor=#82b366;" edge="1" parent="1" source="MEFUFmm3cKLQaKz43sfX-374" target="MEFUFmm3cKLQaKz43sfX-372">
          <mxGeometry relative="1" as="geometry" />
        </mxCell>
        <mxCell id="MEFUFmm3cKLQaKz43sfX-374" value="3" style="ellipse;whiteSpace=wrap;html=1;aspect=fixed;fillColor=#dae8fc;strokeColor=#6c8ebf;" vertex="1" parent="1">
          <mxGeometry x="234" y="2409" width="40" height="40" as="geometry" />
        </mxCell>
        <mxCell id="MEFUFmm3cKLQaKz43sfX-375" value="15" style="rounded=0;orthogonalLoop=1;jettySize=auto;html=1;exitX=0;exitY=0.5;exitDx=0;exitDy=0;shape=link;fillColor=#d5e8d4;strokeColor=#82b366;" edge="1" parent="1" source="MEFUFmm3cKLQaKz43sfX-377" target="MEFUFmm3cKLQaKz43sfX-374">
          <mxGeometry relative="1" as="geometry" />
        </mxCell>
        <mxCell id="MEFUFmm3cKLQaKz43sfX-376" value="6" style="rounded=0;orthogonalLoop=1;jettySize=auto;html=1;exitX=0.5;exitY=1;exitDx=0;exitDy=0;shape=link;" edge="1" parent="1" source="MEFUFmm3cKLQaKz43sfX-377" target="MEFUFmm3cKLQaKz43sfX-379">
          <mxGeometry relative="1" as="geometry" />
        </mxCell>
        <mxCell id="MEFUFmm3cKLQaKz43sfX-377" value="5" style="ellipse;whiteSpace=wrap;html=1;aspect=fixed;" vertex="1" parent="1">
          <mxGeometry x="314" y="2329" width="40" height="40" as="geometry" />
        </mxCell>
        <mxCell id="MEFUFmm3cKLQaKz43sfX-378" value="10" style="rounded=0;orthogonalLoop=1;jettySize=auto;html=1;exitX=0;exitY=0.5;exitDx=0;exitDy=0;entryX=0.5;entryY=1;entryDx=0;entryDy=0;shape=link;fillColor=#d5e8d4;strokeColor=#82b366;" edge="1" parent="1" source="MEFUFmm3cKLQaKz43sfX-379" target="MEFUFmm3cKLQaKz43sfX-374">
          <mxGeometry relative="1" as="geometry" />
        </mxCell>
        <mxCell id="MEFUFmm3cKLQaKz43sfX-379" value="4" style="ellipse;whiteSpace=wrap;html=1;aspect=fixed;" vertex="1" parent="1">
          <mxGeometry x="314" y="2489" width="40" height="40" as="geometry" />
        </mxCell>
        <mxCell id="MEFUFmm3cKLQaKz43sfX-380" value="current node" style="rounded=0;whiteSpace=wrap;html=1;" vertex="1" parent="1">
          <mxGeometry x="394" y="2329" width="120" height="40" as="geometry" />
        </mxCell>
        <mxCell id="MEFUFmm3cKLQaKz43sfX-381" value="3" style="ellipse;whiteSpace=wrap;html=1;aspect=fixed;fillColor=#dae8fc;strokeColor=#6c8ebf;" vertex="1" parent="1">
          <mxGeometry x="554" y="2329" width="40" height="40" as="geometry" />
        </mxCell>
        <mxCell id="MEFUFmm3cKLQaKz43sfX-382" value="Distance" style="rounded=0;whiteSpace=wrap;html=1;" vertex="1" parent="1">
          <mxGeometry x="397" y="2062" width="80" height="40" as="geometry" />
        </mxCell>
        <mxCell id="MEFUFmm3cKLQaKz43sfX-383" value="0" style="rounded=0;whiteSpace=wrap;html=1;" vertex="1" parent="1">
          <mxGeometry x="477" y="2022" width="40" height="40" as="geometry" />
        </mxCell>
        <mxCell id="MEFUFmm3cKLQaKz43sfX-384" value="1" style="rounded=0;whiteSpace=wrap;html=1;" vertex="1" parent="1">
          <mxGeometry x="517" y="2022" width="40" height="40" as="geometry" />
        </mxCell>
        <mxCell id="MEFUFmm3cKLQaKz43sfX-385" value="2" style="rounded=0;whiteSpace=wrap;html=1;" vertex="1" parent="1">
          <mxGeometry x="557" y="2022" width="40" height="40" as="geometry" />
        </mxCell>
        <mxCell id="MEFUFmm3cKLQaKz43sfX-386" value="3" style="rounded=0;whiteSpace=wrap;html=1;fillColor=#dae8fc;strokeColor=#6c8ebf;" vertex="1" parent="1">
          <mxGeometry x="597" y="2022" width="40" height="40" as="geometry" />
        </mxCell>
        <mxCell id="MEFUFmm3cKLQaKz43sfX-387" value="4" style="rounded=0;whiteSpace=wrap;html=1;" vertex="1" parent="1">
          <mxGeometry x="637" y="2022" width="40" height="40" as="geometry" />
        </mxCell>
        <mxCell id="MEFUFmm3cKLQaKz43sfX-388" value="5" style="rounded=0;whiteSpace=wrap;html=1;" vertex="1" parent="1">
          <mxGeometry x="677" y="2022" width="40" height="40" as="geometry" />
        </mxCell>
        <mxCell id="MEFUFmm3cKLQaKz43sfX-389" value="0" style="rounded=0;whiteSpace=wrap;html=1;" vertex="1" parent="1">
          <mxGeometry x="477" y="2062" width="40" height="40" as="geometry" />
        </mxCell>
        <mxCell id="MEFUFmm3cKLQaKz43sfX-390" value="2" style="rounded=0;whiteSpace=wrap;html=1;" vertex="1" parent="1">
          <mxGeometry x="517" y="2062" width="40" height="40" as="geometry" />
        </mxCell>
        <mxCell id="MEFUFmm3cKLQaKz43sfX-391" value="6" style="rounded=0;whiteSpace=wrap;html=1;" vertex="1" parent="1">
          <mxGeometry x="557" y="2062" width="40" height="40" as="geometry" />
        </mxCell>
        <mxCell id="MEFUFmm3cKLQaKz43sfX-392" value="7" style="rounded=0;whiteSpace=wrap;html=1;" vertex="1" parent="1">
          <mxGeometry x="597" y="2062" width="40" height="40" as="geometry" />
        </mxCell>
        <mxCell id="MEFUFmm3cKLQaKz43sfX-393" value="inf" style="rounded=0;whiteSpace=wrap;html=1;" vertex="1" parent="1">
          <mxGeometry x="637" y="2062" width="40" height="40" as="geometry" />
        </mxCell>
        <mxCell id="MEFUFmm3cKLQaKz43sfX-394" value="inf" style="rounded=0;whiteSpace=wrap;html=1;" vertex="1" parent="1">
          <mxGeometry x="677" y="2062" width="40" height="40" as="geometry" />
        </mxCell>
        <mxCell id="MEFUFmm3cKLQaKz43sfX-395" value="Visited" style="rounded=0;whiteSpace=wrap;html=1;" vertex="1" parent="1">
          <mxGeometry x="397" y="2102" width="80" height="40" as="geometry" />
        </mxCell>
        <mxCell id="MEFUFmm3cKLQaKz43sfX-396" value="T" style="rounded=0;whiteSpace=wrap;html=1;fillColor=#d5e8d4;strokeColor=#82b366;" vertex="1" parent="1">
          <mxGeometry x="477" y="2102" width="40" height="40" as="geometry" />
        </mxCell>
        <mxCell id="MEFUFmm3cKLQaKz43sfX-397" value="T" style="rounded=0;whiteSpace=wrap;html=1;fillColor=#d5e8d4;strokeColor=#82b366;" vertex="1" parent="1">
          <mxGeometry x="517" y="2102" width="40" height="40" as="geometry" />
        </mxCell>
        <mxCell id="MEFUFmm3cKLQaKz43sfX-398" value="T" style="rounded=0;whiteSpace=wrap;html=1;fillColor=#d5e8d4;strokeColor=#82b366;" vertex="1" parent="1">
          <mxGeometry x="557" y="2102" width="40" height="40" as="geometry" />
        </mxCell>
        <mxCell id="MEFUFmm3cKLQaKz43sfX-399" value="F" style="rounded=0;whiteSpace=wrap;html=1;fillColor=#f8cecc;strokeColor=#b85450;" vertex="1" parent="1">
          <mxGeometry x="597" y="2102" width="40" height="40" as="geometry" />
        </mxCell>
        <mxCell id="MEFUFmm3cKLQaKz43sfX-400" value="F" style="rounded=0;whiteSpace=wrap;html=1;fillColor=#f8cecc;strokeColor=#b85450;" vertex="1" parent="1">
          <mxGeometry x="637" y="2102" width="40" height="40" as="geometry" />
        </mxCell>
        <mxCell id="MEFUFmm3cKLQaKz43sfX-401" value="F" style="rounded=0;whiteSpace=wrap;html=1;fillColor=#f8cecc;strokeColor=#b85450;" vertex="1" parent="1">
          <mxGeometry x="677" y="2102" width="40" height="40" as="geometry" />
        </mxCell>
        <mxCell id="MEFUFmm3cKLQaKz43sfX-402" value="2" style="rounded=0;orthogonalLoop=1;jettySize=auto;html=1;exitX=0;exitY=0.5;exitDx=0;exitDy=0;shape=link;fillColor=#d5e8d4;strokeColor=#82b366;" edge="1" parent="1" source="MEFUFmm3cKLQaKz43sfX-404" target="MEFUFmm3cKLQaKz43sfX-406">
          <mxGeometry relative="1" as="geometry">
            <mxPoint as="offset" />
          </mxGeometry>
        </mxCell>
        <mxCell id="MEFUFmm3cKLQaKz43sfX-403" value="5" style="rounded=0;orthogonalLoop=1;jettySize=auto;html=1;exitX=1;exitY=0.5;exitDx=0;exitDy=0;shape=link;fillColor=#d5e8d4;strokeColor=#82b366;" edge="1" parent="1" source="MEFUFmm3cKLQaKz43sfX-404" target="MEFUFmm3cKLQaKz43sfX-409">
          <mxGeometry relative="1" as="geometry" />
        </mxCell>
        <mxCell id="MEFUFmm3cKLQaKz43sfX-404" value="1" style="ellipse;whiteSpace=wrap;html=1;aspect=fixed;fillColor=#d5e8d4;strokeColor=#82b366;" vertex="1" parent="1">
          <mxGeometry x="157" y="1942" width="40" height="40" as="geometry" />
        </mxCell>
        <mxCell id="MEFUFmm3cKLQaKz43sfX-405" value="6" style="rounded=0;orthogonalLoop=1;jettySize=auto;html=1;exitX=0.5;exitY=1;exitDx=0;exitDy=0;entryX=0;entryY=0.5;entryDx=0;entryDy=0;shape=link;fillColor=#d5e8d4;strokeColor=#82b366;" edge="1" parent="1" source="MEFUFmm3cKLQaKz43sfX-406" target="MEFUFmm3cKLQaKz43sfX-407">
          <mxGeometry relative="1" as="geometry" />
        </mxCell>
        <mxCell id="MEFUFmm3cKLQaKz43sfX-406" value="0" style="ellipse;whiteSpace=wrap;html=1;aspect=fixed;fillColor=#d5e8d4;strokeColor=#82b366;" vertex="1" parent="1">
          <mxGeometry x="77" y="2022" width="40" height="40" as="geometry" />
        </mxCell>
        <mxCell id="MEFUFmm3cKLQaKz43sfX-407" value="2" style="ellipse;whiteSpace=wrap;html=1;aspect=fixed;fillColor=#d5e8d4;strokeColor=#82b366;" vertex="1" parent="1">
          <mxGeometry x="157" y="2102" width="40" height="40" as="geometry" />
        </mxCell>
        <mxCell id="MEFUFmm3cKLQaKz43sfX-408" value="8" style="rounded=0;orthogonalLoop=1;jettySize=auto;html=1;exitX=0.5;exitY=1;exitDx=0;exitDy=0;entryX=1;entryY=0.5;entryDx=0;entryDy=0;shape=link;fillColor=#d5e8d4;strokeColor=#82b366;" edge="1" parent="1" source="MEFUFmm3cKLQaKz43sfX-409" target="MEFUFmm3cKLQaKz43sfX-407">
          <mxGeometry relative="1" as="geometry" />
        </mxCell>
        <mxCell id="MEFUFmm3cKLQaKz43sfX-409" value="3" style="ellipse;whiteSpace=wrap;html=1;aspect=fixed;fillColor=#dae8fc;strokeColor=#6c8ebf;" vertex="1" parent="1">
          <mxGeometry x="237" y="2022" width="40" height="40" as="geometry" />
        </mxCell>
        <mxCell id="MEFUFmm3cKLQaKz43sfX-410" value="15" style="rounded=0;orthogonalLoop=1;jettySize=auto;html=1;exitX=0;exitY=0.5;exitDx=0;exitDy=0;shape=link;" edge="1" parent="1" source="MEFUFmm3cKLQaKz43sfX-412" target="MEFUFmm3cKLQaKz43sfX-409">
          <mxGeometry relative="1" as="geometry" />
        </mxCell>
        <mxCell id="MEFUFmm3cKLQaKz43sfX-411" value="6" style="rounded=0;orthogonalLoop=1;jettySize=auto;html=1;exitX=0.5;exitY=1;exitDx=0;exitDy=0;shape=link;" edge="1" parent="1" source="MEFUFmm3cKLQaKz43sfX-412" target="MEFUFmm3cKLQaKz43sfX-414">
          <mxGeometry relative="1" as="geometry" />
        </mxCell>
        <mxCell id="MEFUFmm3cKLQaKz43sfX-412" value="5" style="ellipse;whiteSpace=wrap;html=1;aspect=fixed;" vertex="1" parent="1">
          <mxGeometry x="317" y="1942" width="40" height="40" as="geometry" />
        </mxCell>
        <mxCell id="MEFUFmm3cKLQaKz43sfX-413" value="10" style="rounded=0;orthogonalLoop=1;jettySize=auto;html=1;exitX=0;exitY=0.5;exitDx=0;exitDy=0;entryX=0.5;entryY=1;entryDx=0;entryDy=0;shape=link;" edge="1" parent="1" source="MEFUFmm3cKLQaKz43sfX-414" target="MEFUFmm3cKLQaKz43sfX-409">
          <mxGeometry relative="1" as="geometry" />
        </mxCell>
        <mxCell id="MEFUFmm3cKLQaKz43sfX-414" value="4" style="ellipse;whiteSpace=wrap;html=1;aspect=fixed;" vertex="1" parent="1">
          <mxGeometry x="317" y="2102" width="40" height="40" as="geometry" />
        </mxCell>
        <mxCell id="MEFUFmm3cKLQaKz43sfX-415" value="current node" style="rounded=0;whiteSpace=wrap;html=1;" vertex="1" parent="1">
          <mxGeometry x="397" y="1942" width="120" height="40" as="geometry" />
        </mxCell>
        <mxCell id="MEFUFmm3cKLQaKz43sfX-416" value="3" style="ellipse;whiteSpace=wrap;html=1;aspect=fixed;fillColor=#dae8fc;strokeColor=#6c8ebf;" vertex="1" parent="1">
          <mxGeometry x="557" y="1942" width="40" height="40" as="geometry" />
        </mxCell>
        <mxCell id="MEFUFmm3cKLQaKz43sfX-424" value="1. update distance&lt;br style=&quot;border-color: var(--border-color);&quot;&gt;2. mark cur_node as visited" style="rounded=0;whiteSpace=wrap;html=1;align=left;" vertex="1" parent="1">
          <mxGeometry x="640" y="320" width="200" height="80" as="geometry" />
        </mxCell>
        <mxCell id="MEFUFmm3cKLQaKz43sfX-425" value="Select next node" style="rounded=0;whiteSpace=wrap;html=1;align=left;" vertex="1" parent="1">
          <mxGeometry x="640" y="642" width="200" height="80" as="geometry" />
        </mxCell>
        <mxCell id="MEFUFmm3cKLQaKz43sfX-426" value="1. update distance&lt;br style=&quot;border-color: var(--border-color);&quot;&gt;2. mark cur_node as visited" style="rounded=0;whiteSpace=wrap;html=1;align=left;" vertex="1" parent="1">
          <mxGeometry x="640" y="985" width="200" height="80" as="geometry" />
        </mxCell>
        <mxCell id="MEFUFmm3cKLQaKz43sfX-427" value="Select next node" style="rounded=0;whiteSpace=wrap;html=1;align=left;" vertex="1" parent="1">
          <mxGeometry x="640" y="1265" width="200" height="80" as="geometry" />
        </mxCell>
        <mxCell id="MEFUFmm3cKLQaKz43sfX-428" value="1. update distance&lt;br&gt;2. mark cur_node as visited" style="rounded=0;whiteSpace=wrap;html=1;align=left;" vertex="1" parent="1">
          <mxGeometry x="637" y="1622" width="200" height="80" as="geometry" />
        </mxCell>
        <mxCell id="MEFUFmm3cKLQaKz43sfX-429" value="Select next node" style="rounded=0;whiteSpace=wrap;html=1;align=left;" vertex="1" parent="1">
          <mxGeometry x="637" y="1902" width="200" height="80" as="geometry" />
        </mxCell>
        <mxCell id="MEFUFmm3cKLQaKz43sfX-431" value="1. update distance&lt;br&gt;2. mark cur_node as visited" style="rounded=0;whiteSpace=wrap;html=1;align=left;" vertex="1" parent="1">
          <mxGeometry x="634" y="2289" width="200" height="80" as="geometry" />
        </mxCell>
        <mxCell id="MEFUFmm3cKLQaKz43sfX-432" value="" style="rounded=0;whiteSpace=wrap;html=1;fillColor=#e1d5e7;strokeColor=#9673a6;" vertex="1" parent="1">
          <mxGeometry x="34" y="2569" width="800" height="280" as="geometry" />
        </mxCell>
        <mxCell id="MEFUFmm3cKLQaKz43sfX-433" value="Distance" style="rounded=0;whiteSpace=wrap;html=1;" vertex="1" parent="1">
          <mxGeometry x="394" y="2729" width="80" height="40" as="geometry" />
        </mxCell>
        <mxCell id="MEFUFmm3cKLQaKz43sfX-434" value="0" style="rounded=0;whiteSpace=wrap;html=1;" vertex="1" parent="1">
          <mxGeometry x="474" y="2689" width="40" height="40" as="geometry" />
        </mxCell>
        <mxCell id="MEFUFmm3cKLQaKz43sfX-435" value="1" style="rounded=0;whiteSpace=wrap;html=1;" vertex="1" parent="1">
          <mxGeometry x="514" y="2689" width="40" height="40" as="geometry" />
        </mxCell>
        <mxCell id="MEFUFmm3cKLQaKz43sfX-436" value="2" style="rounded=0;whiteSpace=wrap;html=1;" vertex="1" parent="1">
          <mxGeometry x="554" y="2689" width="40" height="40" as="geometry" />
        </mxCell>
        <mxCell id="MEFUFmm3cKLQaKz43sfX-437" value="3" style="rounded=0;whiteSpace=wrap;html=1;" vertex="1" parent="1">
          <mxGeometry x="594" y="2689" width="40" height="40" as="geometry" />
        </mxCell>
        <mxCell id="MEFUFmm3cKLQaKz43sfX-438" value="4" style="rounded=0;whiteSpace=wrap;html=1;" vertex="1" parent="1">
          <mxGeometry x="634" y="2689" width="40" height="40" as="geometry" />
        </mxCell>
        <mxCell id="MEFUFmm3cKLQaKz43sfX-439" value="5" style="rounded=0;whiteSpace=wrap;html=1;" vertex="1" parent="1">
          <mxGeometry x="674" y="2689" width="40" height="40" as="geometry" />
        </mxCell>
        <mxCell id="MEFUFmm3cKLQaKz43sfX-440" value="0" style="rounded=0;whiteSpace=wrap;html=1;" vertex="1" parent="1">
          <mxGeometry x="474" y="2729" width="40" height="40" as="geometry" />
        </mxCell>
        <mxCell id="MEFUFmm3cKLQaKz43sfX-441" value="2" style="rounded=0;whiteSpace=wrap;html=1;" vertex="1" parent="1">
          <mxGeometry x="514" y="2729" width="40" height="40" as="geometry" />
        </mxCell>
        <mxCell id="MEFUFmm3cKLQaKz43sfX-442" value="6" style="rounded=0;whiteSpace=wrap;html=1;" vertex="1" parent="1">
          <mxGeometry x="554" y="2729" width="40" height="40" as="geometry" />
        </mxCell>
        <mxCell id="MEFUFmm3cKLQaKz43sfX-443" value="7" style="rounded=0;whiteSpace=wrap;html=1;" vertex="1" parent="1">
          <mxGeometry x="594" y="2729" width="40" height="40" as="geometry" />
        </mxCell>
        <mxCell id="MEFUFmm3cKLQaKz43sfX-444" value="17" style="rounded=0;whiteSpace=wrap;html=1;" vertex="1" parent="1">
          <mxGeometry x="634" y="2729" width="40" height="40" as="geometry" />
        </mxCell>
        <mxCell id="MEFUFmm3cKLQaKz43sfX-445" value="22" style="rounded=0;whiteSpace=wrap;html=1;" vertex="1" parent="1">
          <mxGeometry x="674" y="2729" width="40" height="40" as="geometry" />
        </mxCell>
        <mxCell id="MEFUFmm3cKLQaKz43sfX-446" value="Visited" style="rounded=0;whiteSpace=wrap;html=1;" vertex="1" parent="1">
          <mxGeometry x="394" y="2769" width="80" height="40" as="geometry" />
        </mxCell>
        <mxCell id="MEFUFmm3cKLQaKz43sfX-447" value="T" style="rounded=0;whiteSpace=wrap;html=1;fillColor=#d5e8d4;strokeColor=#82b366;" vertex="1" parent="1">
          <mxGeometry x="474" y="2769" width="40" height="40" as="geometry" />
        </mxCell>
        <mxCell id="MEFUFmm3cKLQaKz43sfX-448" value="T" style="rounded=0;whiteSpace=wrap;html=1;fillColor=#d5e8d4;strokeColor=#82b366;" vertex="1" parent="1">
          <mxGeometry x="514" y="2769" width="40" height="40" as="geometry" />
        </mxCell>
        <mxCell id="MEFUFmm3cKLQaKz43sfX-449" value="T" style="rounded=0;whiteSpace=wrap;html=1;fillColor=#d5e8d4;strokeColor=#82b366;" vertex="1" parent="1">
          <mxGeometry x="554" y="2769" width="40" height="40" as="geometry" />
        </mxCell>
        <mxCell id="MEFUFmm3cKLQaKz43sfX-450" value="T" style="rounded=0;whiteSpace=wrap;html=1;fillColor=#d5e8d4;strokeColor=#82b366;" vertex="1" parent="1">
          <mxGeometry x="594" y="2769" width="40" height="40" as="geometry" />
        </mxCell>
        <mxCell id="MEFUFmm3cKLQaKz43sfX-451" value="F" style="rounded=0;whiteSpace=wrap;html=1;fillColor=#f8cecc;strokeColor=#b85450;" vertex="1" parent="1">
          <mxGeometry x="634" y="2769" width="40" height="40" as="geometry" />
        </mxCell>
        <mxCell id="MEFUFmm3cKLQaKz43sfX-452" value="F" style="rounded=0;whiteSpace=wrap;html=1;fillColor=#f8cecc;strokeColor=#b85450;" vertex="1" parent="1">
          <mxGeometry x="674" y="2769" width="40" height="40" as="geometry" />
        </mxCell>
        <mxCell id="MEFUFmm3cKLQaKz43sfX-453" value="2" style="rounded=0;orthogonalLoop=1;jettySize=auto;html=1;exitX=0;exitY=0.5;exitDx=0;exitDy=0;shape=link;fillColor=#d5e8d4;strokeColor=#82b366;" edge="1" parent="1" source="MEFUFmm3cKLQaKz43sfX-455" target="MEFUFmm3cKLQaKz43sfX-457">
          <mxGeometry relative="1" as="geometry">
            <mxPoint as="offset" />
          </mxGeometry>
        </mxCell>
        <mxCell id="MEFUFmm3cKLQaKz43sfX-454" value="5" style="rounded=0;orthogonalLoop=1;jettySize=auto;html=1;exitX=1;exitY=0.5;exitDx=0;exitDy=0;shape=link;fillColor=#d5e8d4;strokeColor=#82b366;" edge="1" parent="1" source="MEFUFmm3cKLQaKz43sfX-455" target="MEFUFmm3cKLQaKz43sfX-460">
          <mxGeometry relative="1" as="geometry" />
        </mxCell>
        <mxCell id="MEFUFmm3cKLQaKz43sfX-455" value="1" style="ellipse;whiteSpace=wrap;html=1;aspect=fixed;fillColor=#d5e8d4;strokeColor=#82b366;" vertex="1" parent="1">
          <mxGeometry x="154" y="2609" width="40" height="40" as="geometry" />
        </mxCell>
        <mxCell id="MEFUFmm3cKLQaKz43sfX-456" value="6" style="rounded=0;orthogonalLoop=1;jettySize=auto;html=1;exitX=0.5;exitY=1;exitDx=0;exitDy=0;entryX=0;entryY=0.5;entryDx=0;entryDy=0;shape=link;fillColor=#d5e8d4;strokeColor=#82b366;" edge="1" parent="1" source="MEFUFmm3cKLQaKz43sfX-457" target="MEFUFmm3cKLQaKz43sfX-458">
          <mxGeometry relative="1" as="geometry" />
        </mxCell>
        <mxCell id="MEFUFmm3cKLQaKz43sfX-457" value="0" style="ellipse;whiteSpace=wrap;html=1;aspect=fixed;fillColor=#d5e8d4;strokeColor=#82b366;" vertex="1" parent="1">
          <mxGeometry x="74" y="2689" width="40" height="40" as="geometry" />
        </mxCell>
        <mxCell id="MEFUFmm3cKLQaKz43sfX-458" value="2" style="ellipse;whiteSpace=wrap;html=1;aspect=fixed;fillColor=#d5e8d4;strokeColor=#82b366;" vertex="1" parent="1">
          <mxGeometry x="154" y="2769" width="40" height="40" as="geometry" />
        </mxCell>
        <mxCell id="MEFUFmm3cKLQaKz43sfX-459" value="8" style="rounded=0;orthogonalLoop=1;jettySize=auto;html=1;exitX=0.5;exitY=1;exitDx=0;exitDy=0;entryX=1;entryY=0.5;entryDx=0;entryDy=0;shape=link;fillColor=#d5e8d4;strokeColor=#82b366;" edge="1" parent="1" source="MEFUFmm3cKLQaKz43sfX-460" target="MEFUFmm3cKLQaKz43sfX-458">
          <mxGeometry relative="1" as="geometry" />
        </mxCell>
        <mxCell id="MEFUFmm3cKLQaKz43sfX-460" value="3" style="ellipse;whiteSpace=wrap;html=1;aspect=fixed;fillColor=#d5e8d4;strokeColor=#82b366;" vertex="1" parent="1">
          <mxGeometry x="234" y="2689" width="40" height="40" as="geometry" />
        </mxCell>
        <mxCell id="MEFUFmm3cKLQaKz43sfX-461" value="15" style="rounded=0;orthogonalLoop=1;jettySize=auto;html=1;exitX=0;exitY=0.5;exitDx=0;exitDy=0;shape=link;fillColor=#d5e8d4;strokeColor=#82b366;" edge="1" parent="1" source="MEFUFmm3cKLQaKz43sfX-463" target="MEFUFmm3cKLQaKz43sfX-460">
          <mxGeometry relative="1" as="geometry" />
        </mxCell>
        <mxCell id="MEFUFmm3cKLQaKz43sfX-462" value="6" style="rounded=0;orthogonalLoop=1;jettySize=auto;html=1;exitX=0.5;exitY=1;exitDx=0;exitDy=0;shape=link;" edge="1" parent="1" source="MEFUFmm3cKLQaKz43sfX-463" target="MEFUFmm3cKLQaKz43sfX-465">
          <mxGeometry relative="1" as="geometry" />
        </mxCell>
        <mxCell id="MEFUFmm3cKLQaKz43sfX-463" value="5" style="ellipse;whiteSpace=wrap;html=1;aspect=fixed;" vertex="1" parent="1">
          <mxGeometry x="314" y="2609" width="40" height="40" as="geometry" />
        </mxCell>
        <mxCell id="MEFUFmm3cKLQaKz43sfX-464" value="10" style="rounded=0;orthogonalLoop=1;jettySize=auto;html=1;exitX=0;exitY=0.5;exitDx=0;exitDy=0;entryX=0.5;entryY=1;entryDx=0;entryDy=0;shape=link;fillColor=#d5e8d4;strokeColor=#82b366;" edge="1" parent="1" source="MEFUFmm3cKLQaKz43sfX-465" target="MEFUFmm3cKLQaKz43sfX-460">
          <mxGeometry relative="1" as="geometry" />
        </mxCell>
        <mxCell id="MEFUFmm3cKLQaKz43sfX-465" value="4" style="ellipse;whiteSpace=wrap;html=1;aspect=fixed;fillColor=#dae8fc;strokeColor=#6c8ebf;" vertex="1" parent="1">
          <mxGeometry x="314" y="2769" width="40" height="40" as="geometry" />
        </mxCell>
        <mxCell id="MEFUFmm3cKLQaKz43sfX-466" value="current node" style="rounded=0;whiteSpace=wrap;html=1;" vertex="1" parent="1">
          <mxGeometry x="394" y="2609" width="120" height="40" as="geometry" />
        </mxCell>
        <mxCell id="MEFUFmm3cKLQaKz43sfX-467" value="4" style="ellipse;whiteSpace=wrap;html=1;aspect=fixed;fillColor=#dae8fc;strokeColor=#6c8ebf;" vertex="1" parent="1">
          <mxGeometry x="554" y="2609" width="40" height="40" as="geometry" />
        </mxCell>
        <mxCell id="MEFUFmm3cKLQaKz43sfX-468" value="Select next node" style="rounded=0;whiteSpace=wrap;html=1;align=left;" vertex="1" parent="1">
          <mxGeometry x="634" y="2569" width="200" height="80" as="geometry" />
        </mxCell>
        <mxCell id="MEFUFmm3cKLQaKz43sfX-469" value="" style="rounded=0;whiteSpace=wrap;html=1;fillColor=#b0e3e6;strokeColor=#0e8088;" vertex="1" parent="1">
          <mxGeometry x="34" y="2949" width="800" height="280" as="geometry" />
        </mxCell>
        <mxCell id="MEFUFmm3cKLQaKz43sfX-470" value="Distance" style="rounded=0;whiteSpace=wrap;html=1;" vertex="1" parent="1">
          <mxGeometry x="394" y="3109" width="80" height="40" as="geometry" />
        </mxCell>
        <mxCell id="MEFUFmm3cKLQaKz43sfX-471" value="0" style="rounded=0;whiteSpace=wrap;html=1;" vertex="1" parent="1">
          <mxGeometry x="474" y="3069" width="40" height="40" as="geometry" />
        </mxCell>
        <mxCell id="MEFUFmm3cKLQaKz43sfX-472" value="1" style="rounded=0;whiteSpace=wrap;html=1;" vertex="1" parent="1">
          <mxGeometry x="514" y="3069" width="40" height="40" as="geometry" />
        </mxCell>
        <mxCell id="MEFUFmm3cKLQaKz43sfX-473" value="2" style="rounded=0;whiteSpace=wrap;html=1;" vertex="1" parent="1">
          <mxGeometry x="554" y="3069" width="40" height="40" as="geometry" />
        </mxCell>
        <mxCell id="MEFUFmm3cKLQaKz43sfX-474" value="3" style="rounded=0;whiteSpace=wrap;html=1;" vertex="1" parent="1">
          <mxGeometry x="594" y="3069" width="40" height="40" as="geometry" />
        </mxCell>
        <mxCell id="MEFUFmm3cKLQaKz43sfX-475" value="4" style="rounded=0;whiteSpace=wrap;html=1;" vertex="1" parent="1">
          <mxGeometry x="634" y="3069" width="40" height="40" as="geometry" />
        </mxCell>
        <mxCell id="MEFUFmm3cKLQaKz43sfX-476" value="5" style="rounded=0;whiteSpace=wrap;html=1;" vertex="1" parent="1">
          <mxGeometry x="674" y="3069" width="40" height="40" as="geometry" />
        </mxCell>
        <mxCell id="MEFUFmm3cKLQaKz43sfX-477" value="0" style="rounded=0;whiteSpace=wrap;html=1;" vertex="1" parent="1">
          <mxGeometry x="474" y="3109" width="40" height="40" as="geometry" />
        </mxCell>
        <mxCell id="MEFUFmm3cKLQaKz43sfX-478" value="2" style="rounded=0;whiteSpace=wrap;html=1;" vertex="1" parent="1">
          <mxGeometry x="514" y="3109" width="40" height="40" as="geometry" />
        </mxCell>
        <mxCell id="MEFUFmm3cKLQaKz43sfX-479" value="6" style="rounded=0;whiteSpace=wrap;html=1;" vertex="1" parent="1">
          <mxGeometry x="554" y="3109" width="40" height="40" as="geometry" />
        </mxCell>
        <mxCell id="MEFUFmm3cKLQaKz43sfX-480" value="7" style="rounded=0;whiteSpace=wrap;html=1;" vertex="1" parent="1">
          <mxGeometry x="594" y="3109" width="40" height="40" as="geometry" />
        </mxCell>
        <mxCell id="MEFUFmm3cKLQaKz43sfX-481" value="17" style="rounded=0;whiteSpace=wrap;html=1;" vertex="1" parent="1">
          <mxGeometry x="634" y="3109" width="40" height="40" as="geometry" />
        </mxCell>
        <mxCell id="MEFUFmm3cKLQaKz43sfX-482" value="22" style="rounded=0;whiteSpace=wrap;html=1;" vertex="1" parent="1">
          <mxGeometry x="674" y="3109" width="40" height="40" as="geometry" />
        </mxCell>
        <mxCell id="MEFUFmm3cKLQaKz43sfX-483" value="Visited" style="rounded=0;whiteSpace=wrap;html=1;" vertex="1" parent="1">
          <mxGeometry x="394" y="3149" width="80" height="40" as="geometry" />
        </mxCell>
        <mxCell id="MEFUFmm3cKLQaKz43sfX-484" value="T" style="rounded=0;whiteSpace=wrap;html=1;fillColor=#d5e8d4;strokeColor=#82b366;" vertex="1" parent="1">
          <mxGeometry x="474" y="3149" width="40" height="40" as="geometry" />
        </mxCell>
        <mxCell id="MEFUFmm3cKLQaKz43sfX-485" value="T" style="rounded=0;whiteSpace=wrap;html=1;fillColor=#d5e8d4;strokeColor=#82b366;" vertex="1" parent="1">
          <mxGeometry x="514" y="3149" width="40" height="40" as="geometry" />
        </mxCell>
        <mxCell id="MEFUFmm3cKLQaKz43sfX-486" value="T" style="rounded=0;whiteSpace=wrap;html=1;fillColor=#d5e8d4;strokeColor=#82b366;" vertex="1" parent="1">
          <mxGeometry x="554" y="3149" width="40" height="40" as="geometry" />
        </mxCell>
        <mxCell id="MEFUFmm3cKLQaKz43sfX-487" value="T" style="rounded=0;whiteSpace=wrap;html=1;fillColor=#d5e8d4;strokeColor=#82b366;" vertex="1" parent="1">
          <mxGeometry x="594" y="3149" width="40" height="40" as="geometry" />
        </mxCell>
        <mxCell id="MEFUFmm3cKLQaKz43sfX-488" value="T" style="rounded=0;whiteSpace=wrap;html=1;fillColor=#d5e8d4;strokeColor=#82b366;" vertex="1" parent="1">
          <mxGeometry x="634" y="3149" width="40" height="40" as="geometry" />
        </mxCell>
        <mxCell id="MEFUFmm3cKLQaKz43sfX-489" value="F" style="rounded=0;whiteSpace=wrap;html=1;fillColor=#f8cecc;strokeColor=#b85450;" vertex="1" parent="1">
          <mxGeometry x="674" y="3149" width="40" height="40" as="geometry" />
        </mxCell>
        <mxCell id="MEFUFmm3cKLQaKz43sfX-490" value="2" style="rounded=0;orthogonalLoop=1;jettySize=auto;html=1;exitX=0;exitY=0.5;exitDx=0;exitDy=0;shape=link;fillColor=#d5e8d4;strokeColor=#82b366;" edge="1" parent="1" source="MEFUFmm3cKLQaKz43sfX-492" target="MEFUFmm3cKLQaKz43sfX-494">
          <mxGeometry relative="1" as="geometry">
            <mxPoint as="offset" />
          </mxGeometry>
        </mxCell>
        <mxCell id="MEFUFmm3cKLQaKz43sfX-491" value="5" style="rounded=0;orthogonalLoop=1;jettySize=auto;html=1;exitX=1;exitY=0.5;exitDx=0;exitDy=0;shape=link;fillColor=#d5e8d4;strokeColor=#82b366;" edge="1" parent="1" source="MEFUFmm3cKLQaKz43sfX-492" target="MEFUFmm3cKLQaKz43sfX-497">
          <mxGeometry relative="1" as="geometry" />
        </mxCell>
        <mxCell id="MEFUFmm3cKLQaKz43sfX-492" value="1" style="ellipse;whiteSpace=wrap;html=1;aspect=fixed;fillColor=#d5e8d4;strokeColor=#82b366;" vertex="1" parent="1">
          <mxGeometry x="154" y="2989" width="40" height="40" as="geometry" />
        </mxCell>
        <mxCell id="MEFUFmm3cKLQaKz43sfX-493" value="6" style="rounded=0;orthogonalLoop=1;jettySize=auto;html=1;exitX=0.5;exitY=1;exitDx=0;exitDy=0;entryX=0;entryY=0.5;entryDx=0;entryDy=0;shape=link;fillColor=#d5e8d4;strokeColor=#82b366;" edge="1" parent="1" source="MEFUFmm3cKLQaKz43sfX-494" target="MEFUFmm3cKLQaKz43sfX-495">
          <mxGeometry relative="1" as="geometry" />
        </mxCell>
        <mxCell id="MEFUFmm3cKLQaKz43sfX-494" value="0" style="ellipse;whiteSpace=wrap;html=1;aspect=fixed;fillColor=#d5e8d4;strokeColor=#82b366;" vertex="1" parent="1">
          <mxGeometry x="74" y="3069" width="40" height="40" as="geometry" />
        </mxCell>
        <mxCell id="MEFUFmm3cKLQaKz43sfX-495" value="2" style="ellipse;whiteSpace=wrap;html=1;aspect=fixed;fillColor=#d5e8d4;strokeColor=#82b366;" vertex="1" parent="1">
          <mxGeometry x="154" y="3149" width="40" height="40" as="geometry" />
        </mxCell>
        <mxCell id="MEFUFmm3cKLQaKz43sfX-496" value="8" style="rounded=0;orthogonalLoop=1;jettySize=auto;html=1;exitX=0.5;exitY=1;exitDx=0;exitDy=0;entryX=1;entryY=0.5;entryDx=0;entryDy=0;shape=link;fillColor=#d5e8d4;strokeColor=#82b366;" edge="1" parent="1" source="MEFUFmm3cKLQaKz43sfX-497" target="MEFUFmm3cKLQaKz43sfX-495">
          <mxGeometry relative="1" as="geometry" />
        </mxCell>
        <mxCell id="MEFUFmm3cKLQaKz43sfX-497" value="3" style="ellipse;whiteSpace=wrap;html=1;aspect=fixed;fillColor=#d5e8d4;strokeColor=#82b366;" vertex="1" parent="1">
          <mxGeometry x="234" y="3069" width="40" height="40" as="geometry" />
        </mxCell>
        <mxCell id="MEFUFmm3cKLQaKz43sfX-498" value="15" style="rounded=0;orthogonalLoop=1;jettySize=auto;html=1;exitX=0;exitY=0.5;exitDx=0;exitDy=0;shape=link;fillColor=#d5e8d4;strokeColor=#82b366;" edge="1" parent="1" source="MEFUFmm3cKLQaKz43sfX-500" target="MEFUFmm3cKLQaKz43sfX-497">
          <mxGeometry relative="1" as="geometry" />
        </mxCell>
        <mxCell id="MEFUFmm3cKLQaKz43sfX-499" value="6" style="rounded=0;orthogonalLoop=1;jettySize=auto;html=1;exitX=0.5;exitY=1;exitDx=0;exitDy=0;shape=link;fillColor=#d5e8d4;strokeColor=#82b366;" edge="1" parent="1" source="MEFUFmm3cKLQaKz43sfX-500" target="MEFUFmm3cKLQaKz43sfX-502">
          <mxGeometry relative="1" as="geometry" />
        </mxCell>
        <mxCell id="MEFUFmm3cKLQaKz43sfX-500" value="5" style="ellipse;whiteSpace=wrap;html=1;aspect=fixed;" vertex="1" parent="1">
          <mxGeometry x="314" y="2989" width="40" height="40" as="geometry" />
        </mxCell>
        <mxCell id="MEFUFmm3cKLQaKz43sfX-501" value="10" style="rounded=0;orthogonalLoop=1;jettySize=auto;html=1;exitX=0;exitY=0.5;exitDx=0;exitDy=0;entryX=0.5;entryY=1;entryDx=0;entryDy=0;shape=link;fillColor=#d5e8d4;strokeColor=#82b366;" edge="1" parent="1" source="MEFUFmm3cKLQaKz43sfX-502" target="MEFUFmm3cKLQaKz43sfX-497">
          <mxGeometry relative="1" as="geometry" />
        </mxCell>
        <mxCell id="MEFUFmm3cKLQaKz43sfX-502" value="4" style="ellipse;whiteSpace=wrap;html=1;aspect=fixed;fillColor=#dae8fc;strokeColor=#6c8ebf;" vertex="1" parent="1">
          <mxGeometry x="314" y="3149" width="40" height="40" as="geometry" />
        </mxCell>
        <mxCell id="MEFUFmm3cKLQaKz43sfX-503" value="current node" style="rounded=0;whiteSpace=wrap;html=1;" vertex="1" parent="1">
          <mxGeometry x="394" y="2989" width="120" height="40" as="geometry" />
        </mxCell>
        <mxCell id="MEFUFmm3cKLQaKz43sfX-504" value="4" style="ellipse;whiteSpace=wrap;html=1;aspect=fixed;fillColor=#dae8fc;strokeColor=#6c8ebf;" vertex="1" parent="1">
          <mxGeometry x="554" y="2989" width="40" height="40" as="geometry" />
        </mxCell>
        <mxCell id="MEFUFmm3cKLQaKz43sfX-505" value="1. update distance&lt;br&gt;2. mark cur_node as visited" style="rounded=0;whiteSpace=wrap;html=1;align=left;" vertex="1" parent="1">
          <mxGeometry x="634" y="2949" width="200" height="80" as="geometry" />
        </mxCell>
        <mxCell id="MEFUFmm3cKLQaKz43sfX-506" value="Distance" style="rounded=0;whiteSpace=wrap;html=1;" vertex="1" parent="1">
          <mxGeometry x="394" y="3389" width="80" height="40" as="geometry" />
        </mxCell>
        <mxCell id="MEFUFmm3cKLQaKz43sfX-507" value="0" style="rounded=0;whiteSpace=wrap;html=1;" vertex="1" parent="1">
          <mxGeometry x="474" y="3349" width="40" height="40" as="geometry" />
        </mxCell>
        <mxCell id="MEFUFmm3cKLQaKz43sfX-508" value="1" style="rounded=0;whiteSpace=wrap;html=1;" vertex="1" parent="1">
          <mxGeometry x="514" y="3349" width="40" height="40" as="geometry" />
        </mxCell>
        <mxCell id="MEFUFmm3cKLQaKz43sfX-509" value="2" style="rounded=0;whiteSpace=wrap;html=1;" vertex="1" parent="1">
          <mxGeometry x="554" y="3349" width="40" height="40" as="geometry" />
        </mxCell>
        <mxCell id="MEFUFmm3cKLQaKz43sfX-510" value="3" style="rounded=0;whiteSpace=wrap;html=1;" vertex="1" parent="1">
          <mxGeometry x="594" y="3349" width="40" height="40" as="geometry" />
        </mxCell>
        <mxCell id="MEFUFmm3cKLQaKz43sfX-511" value="4" style="rounded=0;whiteSpace=wrap;html=1;" vertex="1" parent="1">
          <mxGeometry x="634" y="3349" width="40" height="40" as="geometry" />
        </mxCell>
        <mxCell id="MEFUFmm3cKLQaKz43sfX-512" value="5" style="rounded=0;whiteSpace=wrap;html=1;" vertex="1" parent="1">
          <mxGeometry x="674" y="3349" width="40" height="40" as="geometry" />
        </mxCell>
        <mxCell id="MEFUFmm3cKLQaKz43sfX-513" value="0" style="rounded=0;whiteSpace=wrap;html=1;" vertex="1" parent="1">
          <mxGeometry x="474" y="3389" width="40" height="40" as="geometry" />
        </mxCell>
        <mxCell id="MEFUFmm3cKLQaKz43sfX-514" value="2" style="rounded=0;whiteSpace=wrap;html=1;" vertex="1" parent="1">
          <mxGeometry x="514" y="3389" width="40" height="40" as="geometry" />
        </mxCell>
        <mxCell id="MEFUFmm3cKLQaKz43sfX-515" value="6" style="rounded=0;whiteSpace=wrap;html=1;" vertex="1" parent="1">
          <mxGeometry x="554" y="3389" width="40" height="40" as="geometry" />
        </mxCell>
        <mxCell id="MEFUFmm3cKLQaKz43sfX-516" value="7" style="rounded=0;whiteSpace=wrap;html=1;" vertex="1" parent="1">
          <mxGeometry x="594" y="3389" width="40" height="40" as="geometry" />
        </mxCell>
        <mxCell id="MEFUFmm3cKLQaKz43sfX-517" value="17" style="rounded=0;whiteSpace=wrap;html=1;" vertex="1" parent="1">
          <mxGeometry x="634" y="3389" width="40" height="40" as="geometry" />
        </mxCell>
        <mxCell id="MEFUFmm3cKLQaKz43sfX-518" value="22" style="rounded=0;whiteSpace=wrap;html=1;" vertex="1" parent="1">
          <mxGeometry x="674" y="3389" width="40" height="40" as="geometry" />
        </mxCell>
        <mxCell id="MEFUFmm3cKLQaKz43sfX-519" value="Visited" style="rounded=0;whiteSpace=wrap;html=1;" vertex="1" parent="1">
          <mxGeometry x="394" y="3429" width="80" height="40" as="geometry" />
        </mxCell>
        <mxCell id="MEFUFmm3cKLQaKz43sfX-520" value="T" style="rounded=0;whiteSpace=wrap;html=1;fillColor=#d5e8d4;strokeColor=#82b366;" vertex="1" parent="1">
          <mxGeometry x="474" y="3429" width="40" height="40" as="geometry" />
        </mxCell>
        <mxCell id="MEFUFmm3cKLQaKz43sfX-521" value="T" style="rounded=0;whiteSpace=wrap;html=1;fillColor=#d5e8d4;strokeColor=#82b366;" vertex="1" parent="1">
          <mxGeometry x="514" y="3429" width="40" height="40" as="geometry" />
        </mxCell>
        <mxCell id="MEFUFmm3cKLQaKz43sfX-522" value="T" style="rounded=0;whiteSpace=wrap;html=1;fillColor=#d5e8d4;strokeColor=#82b366;" vertex="1" parent="1">
          <mxGeometry x="554" y="3429" width="40" height="40" as="geometry" />
        </mxCell>
        <mxCell id="MEFUFmm3cKLQaKz43sfX-523" value="T" style="rounded=0;whiteSpace=wrap;html=1;fillColor=#d5e8d4;strokeColor=#82b366;" vertex="1" parent="1">
          <mxGeometry x="594" y="3429" width="40" height="40" as="geometry" />
        </mxCell>
        <mxCell id="MEFUFmm3cKLQaKz43sfX-524" value="T" style="rounded=0;whiteSpace=wrap;html=1;fillColor=#d5e8d4;strokeColor=#82b366;" vertex="1" parent="1">
          <mxGeometry x="634" y="3429" width="40" height="40" as="geometry" />
        </mxCell>
        <mxCell id="MEFUFmm3cKLQaKz43sfX-525" value="F" style="rounded=0;whiteSpace=wrap;html=1;fillColor=#f8cecc;strokeColor=#b85450;" vertex="1" parent="1">
          <mxGeometry x="674" y="3429" width="40" height="40" as="geometry" />
        </mxCell>
        <mxCell id="MEFUFmm3cKLQaKz43sfX-526" value="2" style="rounded=0;orthogonalLoop=1;jettySize=auto;html=1;exitX=0;exitY=0.5;exitDx=0;exitDy=0;shape=link;fillColor=#d5e8d4;strokeColor=#82b366;" edge="1" parent="1" source="MEFUFmm3cKLQaKz43sfX-528" target="MEFUFmm3cKLQaKz43sfX-530">
          <mxGeometry relative="1" as="geometry">
            <mxPoint as="offset" />
          </mxGeometry>
        </mxCell>
        <mxCell id="MEFUFmm3cKLQaKz43sfX-527" value="5" style="rounded=0;orthogonalLoop=1;jettySize=auto;html=1;exitX=1;exitY=0.5;exitDx=0;exitDy=0;shape=link;fillColor=#d5e8d4;strokeColor=#82b366;" edge="1" parent="1" source="MEFUFmm3cKLQaKz43sfX-528" target="MEFUFmm3cKLQaKz43sfX-533">
          <mxGeometry relative="1" as="geometry" />
        </mxCell>
        <mxCell id="MEFUFmm3cKLQaKz43sfX-528" value="1" style="ellipse;whiteSpace=wrap;html=1;aspect=fixed;fillColor=#d5e8d4;strokeColor=#82b366;" vertex="1" parent="1">
          <mxGeometry x="154" y="3269" width="40" height="40" as="geometry" />
        </mxCell>
        <mxCell id="MEFUFmm3cKLQaKz43sfX-529" value="6" style="rounded=0;orthogonalLoop=1;jettySize=auto;html=1;exitX=0.5;exitY=1;exitDx=0;exitDy=0;entryX=0;entryY=0.5;entryDx=0;entryDy=0;shape=link;fillColor=#d5e8d4;strokeColor=#82b366;" edge="1" parent="1" source="MEFUFmm3cKLQaKz43sfX-530" target="MEFUFmm3cKLQaKz43sfX-531">
          <mxGeometry relative="1" as="geometry" />
        </mxCell>
        <mxCell id="MEFUFmm3cKLQaKz43sfX-530" value="0" style="ellipse;whiteSpace=wrap;html=1;aspect=fixed;fillColor=#d5e8d4;strokeColor=#82b366;" vertex="1" parent="1">
          <mxGeometry x="74" y="3349" width="40" height="40" as="geometry" />
        </mxCell>
        <mxCell id="MEFUFmm3cKLQaKz43sfX-531" value="2" style="ellipse;whiteSpace=wrap;html=1;aspect=fixed;fillColor=#d5e8d4;strokeColor=#82b366;" vertex="1" parent="1">
          <mxGeometry x="154" y="3429" width="40" height="40" as="geometry" />
        </mxCell>
        <mxCell id="MEFUFmm3cKLQaKz43sfX-532" value="8" style="rounded=0;orthogonalLoop=1;jettySize=auto;html=1;exitX=0.5;exitY=1;exitDx=0;exitDy=0;entryX=1;entryY=0.5;entryDx=0;entryDy=0;shape=link;fillColor=#d5e8d4;strokeColor=#82b366;" edge="1" parent="1" source="MEFUFmm3cKLQaKz43sfX-533" target="MEFUFmm3cKLQaKz43sfX-531">
          <mxGeometry relative="1" as="geometry" />
        </mxCell>
        <mxCell id="MEFUFmm3cKLQaKz43sfX-533" value="3" style="ellipse;whiteSpace=wrap;html=1;aspect=fixed;fillColor=#d5e8d4;strokeColor=#82b366;" vertex="1" parent="1">
          <mxGeometry x="234" y="3349" width="40" height="40" as="geometry" />
        </mxCell>
        <mxCell id="MEFUFmm3cKLQaKz43sfX-534" value="15" style="rounded=0;orthogonalLoop=1;jettySize=auto;html=1;exitX=0;exitY=0.5;exitDx=0;exitDy=0;shape=link;fillColor=#d5e8d4;strokeColor=#82b366;" edge="1" parent="1" source="MEFUFmm3cKLQaKz43sfX-536" target="MEFUFmm3cKLQaKz43sfX-533">
          <mxGeometry relative="1" as="geometry" />
        </mxCell>
        <mxCell id="MEFUFmm3cKLQaKz43sfX-535" value="6" style="rounded=0;orthogonalLoop=1;jettySize=auto;html=1;exitX=0.5;exitY=1;exitDx=0;exitDy=0;shape=link;" edge="1" parent="1" source="MEFUFmm3cKLQaKz43sfX-536" target="MEFUFmm3cKLQaKz43sfX-538">
          <mxGeometry relative="1" as="geometry" />
        </mxCell>
        <mxCell id="MEFUFmm3cKLQaKz43sfX-536" value="5" style="ellipse;whiteSpace=wrap;html=1;aspect=fixed;fillColor=#dae8fc;strokeColor=#6c8ebf;" vertex="1" parent="1">
          <mxGeometry x="314" y="3269" width="40" height="40" as="geometry" />
        </mxCell>
        <mxCell id="MEFUFmm3cKLQaKz43sfX-537" value="10" style="rounded=0;orthogonalLoop=1;jettySize=auto;html=1;exitX=0;exitY=0.5;exitDx=0;exitDy=0;entryX=0.5;entryY=1;entryDx=0;entryDy=0;shape=link;fillColor=#d5e8d4;strokeColor=#82b366;" edge="1" parent="1" source="MEFUFmm3cKLQaKz43sfX-538" target="MEFUFmm3cKLQaKz43sfX-533">
          <mxGeometry relative="1" as="geometry" />
        </mxCell>
        <mxCell id="MEFUFmm3cKLQaKz43sfX-538" value="4" style="ellipse;whiteSpace=wrap;html=1;aspect=fixed;fillColor=#d5e8d4;strokeColor=#82b366;" vertex="1" parent="1">
          <mxGeometry x="314" y="3429" width="40" height="40" as="geometry" />
        </mxCell>
        <mxCell id="MEFUFmm3cKLQaKz43sfX-539" value="current node" style="rounded=0;whiteSpace=wrap;html=1;" vertex="1" parent="1">
          <mxGeometry x="394" y="3269" width="120" height="40" as="geometry" />
        </mxCell>
        <mxCell id="MEFUFmm3cKLQaKz43sfX-540" value="5" style="ellipse;whiteSpace=wrap;html=1;aspect=fixed;fillColor=#dae8fc;strokeColor=#6c8ebf;" vertex="1" parent="1">
          <mxGeometry x="554" y="3269" width="40" height="40" as="geometry" />
        </mxCell>
        <mxCell id="MEFUFmm3cKLQaKz43sfX-541" value="Select next node" style="rounded=0;whiteSpace=wrap;html=1;align=left;" vertex="1" parent="1">
          <mxGeometry x="634" y="3229" width="200" height="80" as="geometry" />
        </mxCell>
        <mxCell id="MEFUFmm3cKLQaKz43sfX-543" value="" style="rounded=0;whiteSpace=wrap;html=1;fillColor=#b1ddf0;strokeColor=#10739e;" vertex="1" parent="1">
          <mxGeometry x="34" y="3556" width="800" height="280" as="geometry" />
        </mxCell>
        <mxCell id="MEFUFmm3cKLQaKz43sfX-544" value="Distance" style="rounded=0;whiteSpace=wrap;html=1;" vertex="1" parent="1">
          <mxGeometry x="394" y="3716" width="80" height="40" as="geometry" />
        </mxCell>
        <mxCell id="MEFUFmm3cKLQaKz43sfX-545" value="0" style="rounded=0;whiteSpace=wrap;html=1;" vertex="1" parent="1">
          <mxGeometry x="474" y="3676" width="40" height="40" as="geometry" />
        </mxCell>
        <mxCell id="MEFUFmm3cKLQaKz43sfX-546" value="1" style="rounded=0;whiteSpace=wrap;html=1;" vertex="1" parent="1">
          <mxGeometry x="514" y="3676" width="40" height="40" as="geometry" />
        </mxCell>
        <mxCell id="MEFUFmm3cKLQaKz43sfX-547" value="2" style="rounded=0;whiteSpace=wrap;html=1;" vertex="1" parent="1">
          <mxGeometry x="554" y="3676" width="40" height="40" as="geometry" />
        </mxCell>
        <mxCell id="MEFUFmm3cKLQaKz43sfX-548" value="3" style="rounded=0;whiteSpace=wrap;html=1;" vertex="1" parent="1">
          <mxGeometry x="594" y="3676" width="40" height="40" as="geometry" />
        </mxCell>
        <mxCell id="MEFUFmm3cKLQaKz43sfX-549" value="4" style="rounded=0;whiteSpace=wrap;html=1;" vertex="1" parent="1">
          <mxGeometry x="634" y="3676" width="40" height="40" as="geometry" />
        </mxCell>
        <mxCell id="MEFUFmm3cKLQaKz43sfX-550" value="5" style="rounded=0;whiteSpace=wrap;html=1;" vertex="1" parent="1">
          <mxGeometry x="674" y="3676" width="40" height="40" as="geometry" />
        </mxCell>
        <mxCell id="MEFUFmm3cKLQaKz43sfX-551" value="0" style="rounded=0;whiteSpace=wrap;html=1;" vertex="1" parent="1">
          <mxGeometry x="474" y="3716" width="40" height="40" as="geometry" />
        </mxCell>
        <mxCell id="MEFUFmm3cKLQaKz43sfX-552" value="2" style="rounded=0;whiteSpace=wrap;html=1;" vertex="1" parent="1">
          <mxGeometry x="514" y="3716" width="40" height="40" as="geometry" />
        </mxCell>
        <mxCell id="MEFUFmm3cKLQaKz43sfX-553" value="6" style="rounded=0;whiteSpace=wrap;html=1;" vertex="1" parent="1">
          <mxGeometry x="554" y="3716" width="40" height="40" as="geometry" />
        </mxCell>
        <mxCell id="MEFUFmm3cKLQaKz43sfX-554" value="7" style="rounded=0;whiteSpace=wrap;html=1;" vertex="1" parent="1">
          <mxGeometry x="594" y="3716" width="40" height="40" as="geometry" />
        </mxCell>
        <mxCell id="MEFUFmm3cKLQaKz43sfX-555" value="17" style="rounded=0;whiteSpace=wrap;html=1;" vertex="1" parent="1">
          <mxGeometry x="634" y="3716" width="40" height="40" as="geometry" />
        </mxCell>
        <mxCell id="MEFUFmm3cKLQaKz43sfX-556" value="22" style="rounded=0;whiteSpace=wrap;html=1;" vertex="1" parent="1">
          <mxGeometry x="674" y="3716" width="40" height="40" as="geometry" />
        </mxCell>
        <mxCell id="MEFUFmm3cKLQaKz43sfX-557" value="Visited" style="rounded=0;whiteSpace=wrap;html=1;" vertex="1" parent="1">
          <mxGeometry x="394" y="3756" width="80" height="40" as="geometry" />
        </mxCell>
        <mxCell id="MEFUFmm3cKLQaKz43sfX-558" value="T" style="rounded=0;whiteSpace=wrap;html=1;fillColor=#d5e8d4;strokeColor=#82b366;" vertex="1" parent="1">
          <mxGeometry x="474" y="3756" width="40" height="40" as="geometry" />
        </mxCell>
        <mxCell id="MEFUFmm3cKLQaKz43sfX-559" value="T" style="rounded=0;whiteSpace=wrap;html=1;fillColor=#d5e8d4;strokeColor=#82b366;" vertex="1" parent="1">
          <mxGeometry x="514" y="3756" width="40" height="40" as="geometry" />
        </mxCell>
        <mxCell id="MEFUFmm3cKLQaKz43sfX-560" value="T" style="rounded=0;whiteSpace=wrap;html=1;fillColor=#d5e8d4;strokeColor=#82b366;" vertex="1" parent="1">
          <mxGeometry x="554" y="3756" width="40" height="40" as="geometry" />
        </mxCell>
        <mxCell id="MEFUFmm3cKLQaKz43sfX-561" value="T" style="rounded=0;whiteSpace=wrap;html=1;fillColor=#d5e8d4;strokeColor=#82b366;" vertex="1" parent="1">
          <mxGeometry x="594" y="3756" width="40" height="40" as="geometry" />
        </mxCell>
        <mxCell id="MEFUFmm3cKLQaKz43sfX-562" value="T" style="rounded=0;whiteSpace=wrap;html=1;fillColor=#d5e8d4;strokeColor=#82b366;" vertex="1" parent="1">
          <mxGeometry x="634" y="3756" width="40" height="40" as="geometry" />
        </mxCell>
        <mxCell id="MEFUFmm3cKLQaKz43sfX-563" value="T" style="rounded=0;whiteSpace=wrap;html=1;fillColor=#d5e8d4;strokeColor=#82b366;" vertex="1" parent="1">
          <mxGeometry x="674" y="3756" width="40" height="40" as="geometry" />
        </mxCell>
        <mxCell id="MEFUFmm3cKLQaKz43sfX-564" value="2" style="rounded=0;orthogonalLoop=1;jettySize=auto;html=1;exitX=0;exitY=0.5;exitDx=0;exitDy=0;shape=link;fillColor=#d5e8d4;strokeColor=#82b366;" edge="1" parent="1" source="MEFUFmm3cKLQaKz43sfX-566" target="MEFUFmm3cKLQaKz43sfX-568">
          <mxGeometry relative="1" as="geometry">
            <mxPoint as="offset" />
          </mxGeometry>
        </mxCell>
        <mxCell id="MEFUFmm3cKLQaKz43sfX-565" value="5" style="rounded=0;orthogonalLoop=1;jettySize=auto;html=1;exitX=1;exitY=0.5;exitDx=0;exitDy=0;shape=link;fillColor=#d5e8d4;strokeColor=#82b366;" edge="1" parent="1" source="MEFUFmm3cKLQaKz43sfX-566" target="MEFUFmm3cKLQaKz43sfX-571">
          <mxGeometry relative="1" as="geometry" />
        </mxCell>
        <mxCell id="MEFUFmm3cKLQaKz43sfX-566" value="1" style="ellipse;whiteSpace=wrap;html=1;aspect=fixed;fillColor=#d5e8d4;strokeColor=#82b366;" vertex="1" parent="1">
          <mxGeometry x="154" y="3596" width="40" height="40" as="geometry" />
        </mxCell>
        <mxCell id="MEFUFmm3cKLQaKz43sfX-567" value="6" style="rounded=0;orthogonalLoop=1;jettySize=auto;html=1;exitX=0.5;exitY=1;exitDx=0;exitDy=0;entryX=0;entryY=0.5;entryDx=0;entryDy=0;shape=link;fillColor=#d5e8d4;strokeColor=#82b366;" edge="1" parent="1" source="MEFUFmm3cKLQaKz43sfX-568" target="MEFUFmm3cKLQaKz43sfX-569">
          <mxGeometry relative="1" as="geometry" />
        </mxCell>
        <mxCell id="MEFUFmm3cKLQaKz43sfX-568" value="0" style="ellipse;whiteSpace=wrap;html=1;aspect=fixed;fillColor=#d5e8d4;strokeColor=#82b366;" vertex="1" parent="1">
          <mxGeometry x="74" y="3676" width="40" height="40" as="geometry" />
        </mxCell>
        <mxCell id="MEFUFmm3cKLQaKz43sfX-569" value="2" style="ellipse;whiteSpace=wrap;html=1;aspect=fixed;fillColor=#d5e8d4;strokeColor=#82b366;" vertex="1" parent="1">
          <mxGeometry x="154" y="3756" width="40" height="40" as="geometry" />
        </mxCell>
        <mxCell id="MEFUFmm3cKLQaKz43sfX-570" value="8" style="rounded=0;orthogonalLoop=1;jettySize=auto;html=1;exitX=0.5;exitY=1;exitDx=0;exitDy=0;entryX=1;entryY=0.5;entryDx=0;entryDy=0;shape=link;fillColor=#d5e8d4;strokeColor=#82b366;" edge="1" parent="1" source="MEFUFmm3cKLQaKz43sfX-571" target="MEFUFmm3cKLQaKz43sfX-569">
          <mxGeometry relative="1" as="geometry" />
        </mxCell>
        <mxCell id="MEFUFmm3cKLQaKz43sfX-571" value="3" style="ellipse;whiteSpace=wrap;html=1;aspect=fixed;fillColor=#d5e8d4;strokeColor=#82b366;" vertex="1" parent="1">
          <mxGeometry x="234" y="3676" width="40" height="40" as="geometry" />
        </mxCell>
        <mxCell id="MEFUFmm3cKLQaKz43sfX-572" value="15" style="rounded=0;orthogonalLoop=1;jettySize=auto;html=1;exitX=0;exitY=0.5;exitDx=0;exitDy=0;shape=link;fillColor=#d5e8d4;strokeColor=#82b366;" edge="1" parent="1" source="MEFUFmm3cKLQaKz43sfX-574" target="MEFUFmm3cKLQaKz43sfX-571">
          <mxGeometry relative="1" as="geometry" />
        </mxCell>
        <mxCell id="MEFUFmm3cKLQaKz43sfX-573" value="6" style="rounded=0;orthogonalLoop=1;jettySize=auto;html=1;exitX=0.5;exitY=1;exitDx=0;exitDy=0;shape=link;" edge="1" parent="1" source="MEFUFmm3cKLQaKz43sfX-574" target="MEFUFmm3cKLQaKz43sfX-576">
          <mxGeometry relative="1" as="geometry" />
        </mxCell>
        <mxCell id="MEFUFmm3cKLQaKz43sfX-574" value="5" style="ellipse;whiteSpace=wrap;html=1;aspect=fixed;fillColor=#dae8fc;strokeColor=#6c8ebf;" vertex="1" parent="1">
          <mxGeometry x="314" y="3596" width="40" height="40" as="geometry" />
        </mxCell>
        <mxCell id="MEFUFmm3cKLQaKz43sfX-575" value="10" style="rounded=0;orthogonalLoop=1;jettySize=auto;html=1;exitX=0;exitY=0.5;exitDx=0;exitDy=0;entryX=0.5;entryY=1;entryDx=0;entryDy=0;shape=link;fillColor=#d5e8d4;strokeColor=#82b366;" edge="1" parent="1" source="MEFUFmm3cKLQaKz43sfX-576" target="MEFUFmm3cKLQaKz43sfX-571">
          <mxGeometry relative="1" as="geometry" />
        </mxCell>
        <mxCell id="MEFUFmm3cKLQaKz43sfX-576" value="4" style="ellipse;whiteSpace=wrap;html=1;aspect=fixed;fillColor=#d5e8d4;strokeColor=#82b366;" vertex="1" parent="1">
          <mxGeometry x="314" y="3756" width="40" height="40" as="geometry" />
        </mxCell>
        <mxCell id="MEFUFmm3cKLQaKz43sfX-577" value="current node" style="rounded=0;whiteSpace=wrap;html=1;" vertex="1" parent="1">
          <mxGeometry x="394" y="3596" width="120" height="40" as="geometry" />
        </mxCell>
        <mxCell id="MEFUFmm3cKLQaKz43sfX-578" value="5" style="ellipse;whiteSpace=wrap;html=1;aspect=fixed;fillColor=#dae8fc;strokeColor=#6c8ebf;" vertex="1" parent="1">
          <mxGeometry x="554" y="3596" width="40" height="40" as="geometry" />
        </mxCell>
        <mxCell id="MEFUFmm3cKLQaKz43sfX-579" value="1. update distance&lt;br style=&quot;border-color: var(--border-color);&quot;&gt;2. mark cur_node as visited" style="rounded=0;whiteSpace=wrap;html=1;align=left;" vertex="1" parent="1">
          <mxGeometry x="634" y="3556" width="200" height="80" as="geometry" />
        </mxCell>
      </root>
    </mxGraphModel>
  </diagram>
</mxfile>
